<?xml version="1.0" encoding="UTF-8"?>
<!DOCTYPE svg PUBLIC "-//W3C//DTD SVG 1.1//EN" "http://www.w3.org/Graphics/SVG/1.1/DTD/svg11.dtd">
<svg xmlns="http://www.w3.org/2000/svg" version="1.1" width="256px" height="256px" style="shape-rendering:geometricPrecision; text-rendering:geometricPrecision; image-rendering:optimizeQuality; fill-rule:evenodd; clip-rule:evenodd" xmlns:xlink="http://www.w3.org/1999/xlink">
<g><path style="opacity:1" fill="#e59a8c" d="M -0.5,-0.5 C 84.8333,-0.5 170.167,-0.5 255.5,-0.5C 255.5,83.5 255.5,167.5 255.5,251.5C 254.167,251.5 252.833,251.5 251.5,251.5C 251.5,250.167 251.5,248.833 251.5,247.5C 248.833,247.5 246.167,247.5 243.5,247.5C 243.5,246.167 243.5,244.833 243.5,243.5C 240.833,243.5 238.167,243.5 235.5,243.5C 235.5,242.167 235.5,240.833 235.5,239.5C 231.5,239.5 227.5,239.5 223.5,239.5C 223.5,238.167 223.5,236.833 223.5,235.5C 222.167,235.5 220.833,235.5 219.5,235.5C 219.5,234.167 219.5,232.833 219.5,231.5C 218.167,231.5 216.833,231.5 215.5,231.5C 215.5,230.167 215.5,228.833 215.5,227.5C 214.167,227.5 212.833,227.5 211.5,227.5C 211.5,226.167 211.5,224.833 211.5,223.5C 207.5,223.5 203.5,223.5 199.5,223.5C 199.5,222.167 199.5,220.833 199.5,219.5C 198.167,219.5 196.833,219.5 195.5,219.5C 195.5,215.5 195.5,211.5 195.5,207.5C 196.833,207.5 198.167,207.5 199.5,207.5C 199.5,199.5 199.5,191.5 199.5,183.5C 202.167,183.5 204.833,183.5 207.5,183.5C 207.5,180.833 207.5,178.167 207.5,175.5C 208.833,175.5 210.167,175.5 211.5,175.5C 211.5,171.5 211.5,167.5 211.5,163.5C 212.833,163.5 214.167,163.5 215.5,163.5C 215.5,159.5 215.5,155.5 215.5,151.5C 216.833,151.5 218.167,151.5 219.5,151.5C 219.5,147.5 219.5,143.5 219.5,139.5C 218.167,139.5 216.833,139.5 215.5,139.5C 215.5,138.167 215.5,136.833 215.5,135.5C 214.167,135.5 212.833,135.5 211.5,135.5C 211.5,132.833 211.5,130.167 211.5,127.5C 212.833,127.5 214.167,127.5 215.5,127.5C 215.5,120.833 215.5,114.167 215.5,107.5C 216.833,107.5 218.167,107.5 219.5,107.5C 219.5,99.5 219.5,91.5 219.5,83.5C 218.167,83.5 216.833,83.5 215.5,83.5C 215.5,80.8333 215.5,78.1667 215.5,75.5C 214.167,75.5 212.833,75.5 211.5,75.5C 211.5,72.8333 211.5,70.1667 211.5,67.5C 210.167,67.5 208.833,67.5 207.5,67.5C 207.5,64.8333 207.5,62.1667 207.5,59.5C 206.167,59.5 204.833,59.5 203.5,59.5C 203.5,58.1667 203.5,56.8333 203.5,55.5C 202.167,55.5 200.833,55.5 199.5,55.5C 199.5,54.1667 199.5,52.8333 199.5,51.5C 198.167,51.5 196.833,51.5 195.5,51.5C 195.5,50.1667 195.5,48.8333 195.5,47.5C 194.167,47.5 192.833,47.5 191.5,47.5C 191.5,46.1667 191.5,44.8333 191.5,43.5C 188.833,43.5 186.167,43.5 183.5,43.5C 183.5,42.1667 183.5,40.8333 183.5,39.5C 182.167,39.5 180.833,39.5 179.5,39.5C 179.5,38.1667 179.5,36.8333 179.5,35.5C 176.833,35.5 174.167,35.5 171.5,35.5C 171.5,34.1667 171.5,32.8333 171.5,31.5C 168.833,31.5 166.167,31.5 163.5,31.5C 163.5,30.1667 163.5,28.8333 163.5,27.5C 159.5,27.5 155.5,27.5 151.5,27.5C 151.5,26.1667 151.5,24.8333 151.5,23.5C 140.833,23.5 130.167,23.5 119.5,23.5C 119.5,24.8333 119.5,26.1667 119.5,27.5C 115.5,27.5 111.5,27.5 107.5,27.5C 107.5,28.8333 107.5,30.1667 107.5,31.5C 104.833,31.5 102.167,31.5 99.5,31.5C 99.5,32.8333 99.5,34.1667 99.5,35.5C 96.8333,35.5 94.1667,35.5 91.5,35.5C 91.5,36.8333 91.5,38.1667 91.5,39.5C 88.8333,39.5 86.1667,39.5 83.5,39.5C 83.5,40.8333 83.5,42.1667 83.5,43.5C 80.8333,43.5 78.1667,43.5 75.5,43.5C 75.5,44.8333 75.5,46.1667 75.5,47.5C 74.1667,47.5 72.8333,47.5 71.5,47.5C 71.5,48.8333 71.5,50.1667 71.5,51.5C 70.1667,51.5 68.8333,51.5 67.5,51.5C 67.5,52.8333 67.5,54.1667 67.5,55.5C 66.1667,55.5 64.8333,55.5 63.5,55.5C 63.5,56.8333 63.5,58.1667 63.5,59.5C 62.1667,59.5 60.8333,59.5 59.5,59.5C 59.5,60.8333 59.5,62.1667 59.5,63.5C 58.1667,63.5 56.8333,63.5 55.5,63.5C 55.5,64.8333 55.5,66.1667 55.5,67.5C 54.1667,67.5 52.8333,67.5 51.5,67.5C 51.5,84.8333 51.5,102.167 51.5,119.5C 52.8333,119.5 54.1667,119.5 55.5,119.5C 55.5,123.5 55.5,127.5 55.5,131.5C 56.8333,131.5 58.1667,131.5 59.5,131.5C 59.5,134.167 59.5,136.833 59.5,139.5C 58.1667,139.5 56.8333,139.5 55.5,139.5C 55.5,144.833 55.5,150.167 55.5,155.5C 56.8333,155.5 58.1667,155.5 59.5,155.5C 59.5,159.5 59.5,163.5 59.5,167.5C 60.8333,167.5 62.1667,167.5 63.5,167.5C 63.5,174.167 63.5,180.833 63.5,187.5C 64.8333,187.5 66.1667,187.5 67.5,187.5C 67.5,191.5 67.5,195.5 67.5,199.5C 68.8333,199.5 70.1667,199.5 71.5,199.5C 71.5,202.167 71.5,204.833 71.5,207.5C 72.8333,207.5 74.1667,207.5 75.5,207.5C 75.5,208.833 75.5,210.167 75.5,211.5C 76.8333,211.5 78.1667,211.5 79.5,211.5C 79.5,212.833 79.5,214.167 79.5,215.5C 80.8333,215.5 82.1667,215.5 83.5,215.5C 83.5,218.167 83.5,220.833 83.5,223.5C 84.8333,223.5 86.1667,223.5 87.5,223.5C 87.5,228.833 87.5,234.167 87.5,239.5C 88.8333,239.5 90.1667,239.5 91.5,239.5C 91.5,240.833 91.5,242.167 91.5,243.5C 90.1667,243.5 88.8333,243.5 87.5,243.5C 87.5,244.833 87.5,246.167 87.5,247.5C 86.1667,247.5 84.8333,247.5 83.5,247.5C 83.5,248.833 83.5,250.167 83.5,251.5C 80.8333,251.5 78.1667,251.5 75.5,251.5C 75.5,252.833 75.5,254.167 75.5,255.5C 50.1667,255.5 24.8333,255.5 -0.5,255.5C -0.5,170.167 -0.5,84.8333 -0.5,-0.5 Z"/></g>
<g><path style="opacity:1" fill="#0d0d0d" d="M 151.5,27.5 C 147.5,27.5 143.5,27.5 139.5,27.5C 138.167,27.5 136.833,27.5 135.5,27.5C 134.167,27.5 132.833,27.5 131.5,27.5C 130.167,27.5 128.833,27.5 127.5,27.5C 126.167,27.5 124.833,27.5 123.5,27.5C 122.167,27.5 120.833,27.5 119.5,27.5C 119.5,26.1667 119.5,24.8333 119.5,23.5C 130.167,23.5 140.833,23.5 151.5,23.5C 151.5,24.8333 151.5,26.1667 151.5,27.5 Z"/></g>
<g><path style="opacity:1" fill="#0d0d0d" d="M 119.5,27.5 C 119.5,28.8333 119.5,30.1667 119.5,31.5C 118.167,31.5 116.833,31.5 115.5,31.5C 112.833,31.5 110.167,31.5 107.5,31.5C 107.5,30.1667 107.5,28.8333 107.5,27.5C 111.5,27.5 115.5,27.5 119.5,27.5 Z"/></g>
<g><path style="opacity:1" fill="#afaca7" d="M 119.5,27.5 C 120.833,27.5 122.167,27.5 123.5,27.5C 123.5,28.8333 123.5,30.1667 123.5,31.5C 122.167,31.5 120.833,31.5 119.5,31.5C 119.5,30.1667 119.5,28.8333 119.5,27.5 Z"/></g>
<g><path style="opacity:1" fill="#746f6b" d="M 123.5,27.5 C 124.833,27.5 126.167,27.5 127.5,27.5C 127.5,28.8333 127.5,30.1667 127.5,31.5C 126.167,31.5 124.833,31.5 123.5,31.5C 123.5,30.1667 123.5,28.8333 123.5,27.5 Z"/></g>
<g><path style="opacity:1" fill="#3d3834" d="M 127.5,27.5 C 128.833,27.5 130.167,27.5 131.5,27.5C 131.5,28.8333 131.5,30.1667 131.5,31.5C 132.833,31.5 134.167,31.5 135.5,31.5C 135.5,30.1667 135.5,28.8333 135.5,27.5C 136.833,27.5 138.167,27.5 139.5,27.5C 139.5,28.8333 139.5,30.1667 139.5,31.5C 140.833,31.5 142.167,31.5 143.5,31.5C 143.5,32.8333 143.5,34.1667 143.5,35.5C 140.833,35.5 138.167,35.5 135.5,35.5C 135.5,38.1667 135.5,40.8333 135.5,43.5C 134.167,43.5 132.833,43.5 131.5,43.5C 131.5,40.8333 131.5,38.1667 131.5,35.5C 128.833,35.5 126.167,35.5 123.5,35.5C 123.5,34.1667 123.5,32.8333 123.5,31.5C 124.833,31.5 126.167,31.5 127.5,31.5C 127.5,30.1667 127.5,28.8333 127.5,27.5 Z"/></g>
<g><path style="opacity:1" fill="#746f6c" d="M 131.5,27.5 C 132.833,27.5 134.167,27.5 135.5,27.5C 135.5,28.8333 135.5,30.1667 135.5,31.5C 134.167,31.5 132.833,31.5 131.5,31.5C 131.5,30.1667 131.5,28.8333 131.5,27.5 Z"/></g>
<g><path style="opacity:1" fill="#746f6b" d="M 139.5,27.5 C 143.5,27.5 147.5,27.5 151.5,27.5C 151.5,28.8333 151.5,30.1667 151.5,31.5C 155.5,31.5 159.5,31.5 163.5,31.5C 163.5,32.8333 163.5,34.1667 163.5,35.5C 166.167,35.5 168.833,35.5 171.5,35.5C 171.5,36.8333 171.5,38.1667 171.5,39.5C 172.833,39.5 174.167,39.5 175.5,39.5C 175.5,40.8333 175.5,42.1667 175.5,43.5C 172.833,43.5 170.167,43.5 167.5,43.5C 167.5,44.8333 167.5,46.1667 167.5,47.5C 168.833,47.5 170.167,47.5 171.5,47.5C 171.5,50.1667 171.5,52.8333 171.5,55.5C 170.167,55.5 168.833,55.5 167.5,55.5C 167.5,54.1667 167.5,52.8333 167.5,51.5C 166.167,51.5 164.833,51.5 163.5,51.5C 163.5,50.1667 163.5,48.8333 163.5,47.5C 162.167,47.5 160.833,47.5 159.5,47.5C 159.5,44.8333 159.5,42.1667 159.5,39.5C 156.833,39.5 154.167,39.5 151.5,39.5C 151.5,42.1667 151.5,44.8333 151.5,47.5C 150.167,47.5 148.833,47.5 147.5,47.5C 147.5,46.1667 147.5,44.8333 147.5,43.5C 143.5,43.5 139.5,43.5 135.5,43.5C 135.5,40.8333 135.5,38.1667 135.5,35.5C 138.167,35.5 140.833,35.5 143.5,35.5C 143.5,34.1667 143.5,32.8333 143.5,31.5C 142.167,31.5 140.833,31.5 139.5,31.5C 139.5,30.1667 139.5,28.8333 139.5,27.5 Z"/></g>
<g><path style="opacity:1" fill="#0d0d0d" d="M 151.5,27.5 C 155.5,27.5 159.5,27.5 163.5,27.5C 163.5,28.8333 163.5,30.1667 163.5,31.5C 159.5,31.5 155.5,31.5 151.5,31.5C 151.5,30.1667 151.5,28.8333 151.5,27.5 Z"/></g>
<g><path style="opacity:1" fill="#0d0d0d" d="M 107.5,31.5 C 107.5,32.8333 107.5,34.1667 107.5,35.5C 104.833,35.5 102.167,35.5 99.5,35.5C 99.5,34.1667 99.5,32.8333 99.5,31.5C 102.167,31.5 104.833,31.5 107.5,31.5 Z"/></g>
<g><path style="opacity:1" fill="#afaca6" d="M 107.5,31.5 C 110.167,31.5 112.833,31.5 115.5,31.5C 115.5,32.8333 115.5,34.1667 115.5,35.5C 114.167,35.5 112.833,35.5 111.5,35.5C 111.5,36.8333 111.5,38.1667 111.5,39.5C 110.167,39.5 108.833,39.5 107.5,39.5C 107.5,42.1667 107.5,44.8333 107.5,47.5C 102.167,47.5 96.8333,47.5 91.5,47.5C 91.5,46.1667 91.5,44.8333 91.5,43.5C 91.5,42.1667 91.5,40.8333 91.5,39.5C 94.1667,39.5 96.8333,39.5 99.5,39.5C 99.5,38.1667 99.5,36.8333 99.5,35.5C 102.167,35.5 104.833,35.5 107.5,35.5C 107.5,34.1667 107.5,32.8333 107.5,31.5 Z"/></g>
<g><path style="opacity:1" fill="#746f6b" d="M 115.5,31.5 C 116.833,31.5 118.167,31.5 119.5,31.5C 120.833,31.5 122.167,31.5 123.5,31.5C 123.5,32.8333 123.5,34.1667 123.5,35.5C 126.167,35.5 128.833,35.5 131.5,35.5C 131.5,38.1667 131.5,40.8333 131.5,43.5C 130.167,43.5 128.833,43.5 127.5,43.5C 127.5,42.1667 127.5,40.8333 127.5,39.5C 124.833,39.5 122.167,39.5 119.5,39.5C 119.5,38.1667 119.5,36.8333 119.5,35.5C 118.167,35.5 116.833,35.5 115.5,35.5C 115.5,34.1667 115.5,32.8333 115.5,31.5 Z"/></g>
<g><path style="opacity:1" fill="#3d3834" d="M 151.5,31.5 C 151.5,32.8333 151.5,34.1667 151.5,35.5C 150.167,35.5 148.833,35.5 147.5,35.5C 147.5,34.1667 147.5,32.8333 147.5,31.5C 148.833,31.5 150.167,31.5 151.5,31.5 Z"/></g>
<g><path style="opacity:1" fill="#0d0d0d" d="M 163.5,31.5 C 166.167,31.5 168.833,31.5 171.5,31.5C 171.5,32.8333 171.5,34.1667 171.5,35.5C 168.833,35.5 166.167,35.5 163.5,35.5C 163.5,34.1667 163.5,32.8333 163.5,31.5 Z"/></g>
<g><path style="opacity:1" fill="#0d0d0d" d="M 99.5,35.5 C 99.5,36.8333 99.5,38.1667 99.5,39.5C 96.8333,39.5 94.1667,39.5 91.5,39.5C 91.5,38.1667 91.5,36.8333 91.5,35.5C 94.1667,35.5 96.8333,35.5 99.5,35.5 Z"/></g>
<g><path style="opacity:1" fill="#736f6c" d="M 115.5,35.5 C 115.5,36.8333 115.5,38.1667 115.5,39.5C 114.167,39.5 112.833,39.5 111.5,39.5C 111.5,38.1667 111.5,36.8333 111.5,35.5C 112.833,35.5 114.167,35.5 115.5,35.5 Z"/></g>
<g><path style="opacity:1" fill="#3a3632" d="M 115.5,35.5 C 116.833,35.5 118.167,35.5 119.5,35.5C 119.5,36.8333 119.5,38.1667 119.5,39.5C 122.167,39.5 124.833,39.5 127.5,39.5C 127.5,40.8333 127.5,42.1667 127.5,43.5C 128.833,43.5 130.167,43.5 131.5,43.5C 131.5,44.8333 131.5,46.1667 131.5,47.5C 132.833,47.5 134.167,47.5 135.5,47.5C 135.5,46.1667 135.5,44.8333 135.5,43.5C 139.5,43.5 143.5,43.5 147.5,43.5C 147.5,44.8333 147.5,46.1667 147.5,47.5C 148.833,47.5 150.167,47.5 151.5,47.5C 151.5,44.8333 151.5,42.1667 151.5,39.5C 154.167,39.5 156.833,39.5 159.5,39.5C 159.5,42.1667 159.5,44.8333 159.5,47.5C 160.833,47.5 162.167,47.5 163.5,47.5C 163.5,48.8333 163.5,50.1667 163.5,51.5C 164.833,51.5 166.167,51.5 167.5,51.5C 167.5,52.8333 167.5,54.1667 167.5,55.5C 168.833,55.5 170.167,55.5 171.5,55.5C 171.5,58.1667 171.5,60.8333 171.5,63.5C 172.833,63.5 174.167,63.5 175.5,63.5C 175.5,64.8333 175.5,66.1667 175.5,67.5C 176.833,67.5 178.167,67.5 179.5,67.5C 179.5,66.1667 179.5,64.8333 179.5,63.5C 180.833,63.5 182.167,63.5 183.5,63.5C 183.5,64.8333 183.5,66.1667 183.5,67.5C 186.167,67.5 188.833,67.5 191.5,67.5C 191.5,70.1667 191.5,72.8333 191.5,75.5C 192.833,75.5 194.167,75.5 195.5,75.5C 195.5,76.8333 195.5,78.1667 195.5,79.5C 196.833,79.5 198.167,79.5 199.5,79.5C 199.5,82.1667 199.5,84.8333 199.5,87.5C 202.167,87.5 204.833,87.5 207.5,87.5C 207.5,88.8333 207.5,90.1667 207.5,91.5C 206.167,91.5 204.833,91.5 203.5,91.5C 203.5,92.8333 203.5,94.1667 203.5,95.5C 206.167,95.5 208.833,95.5 211.5,95.5C 211.5,99.5 211.5,103.5 211.5,107.5C 211.5,114.167 211.5,120.833 211.5,127.5C 210.167,127.5 208.833,127.5 207.5,127.5C 207.5,130.167 207.5,132.833 207.5,135.5C 207.5,138.167 207.5,140.833 207.5,143.5C 206.167,143.5 204.833,143.5 203.5,143.5C 203.5,139.5 203.5,135.5 203.5,131.5C 202.167,131.5 200.833,131.5 199.5,131.5C 199.5,124.833 199.5,118.167 199.5,111.5C 198.167,111.5 196.833,111.5 195.5,111.5C 195.5,106.167 195.5,100.833 195.5,95.5C 194.167,95.5 192.833,95.5 191.5,95.5C 191.5,92.8333 191.5,90.1667 191.5,87.5C 190.167,87.5 188.833,87.5 187.5,87.5C 187.5,86.1667 187.5,84.8333 187.5,83.5C 186.167,83.5 184.833,83.5 183.5,83.5C 183.5,82.1667 183.5,80.8333 183.5,79.5C 180.833,79.5 178.167,79.5 175.5,79.5C 175.5,78.1667 175.5,76.8333 175.5,75.5C 172.833,75.5 170.167,75.5 167.5,75.5C 167.5,74.1667 167.5,72.8333 167.5,71.5C 148.833,71.5 130.167,71.5 111.5,71.5C 111.5,70.1667 111.5,68.8333 111.5,67.5C 108.833,67.5 106.167,67.5 103.5,67.5C 103.5,68.8333 103.5,70.1667 103.5,71.5C 99.5,71.5 95.5,71.5 91.5,71.5C 91.5,70.1667 91.5,68.8333 91.5,67.5C 90.1667,67.5 88.8333,67.5 87.5,67.5C 87.5,68.8333 87.5,70.1667 87.5,71.5C 84.8333,71.5 82.1667,71.5 79.5,71.5C 79.5,72.8333 79.5,74.1667 79.5,75.5C 78.1667,75.5 76.8333,75.5 75.5,75.5C 75.5,76.8333 75.5,78.1667 75.5,79.5C 74.1667,79.5 72.8333,79.5 71.5,79.5C 71.5,80.8333 71.5,82.1667 71.5,83.5C 72.8333,83.5 74.1667,83.5 75.5,83.5C 75.5,84.8333 75.5,86.1667 75.5,87.5C 74.1667,87.5 72.8333,87.5 71.5,87.5C 71.5,91.5 71.5,95.5 71.5,99.5C 70.1667,99.5 68.8333,99.5 67.5,99.5C 67.5,106.167 67.5,112.833 67.5,119.5C 66.1667,119.5 64.8333,119.5 63.5,119.5C 63.5,122.167 63.5,124.833 63.5,127.5C 64.8333,127.5 66.1667,127.5 67.5,127.5C 67.5,128.833 67.5,130.167 67.5,131.5C 66.1667,131.5 64.8333,131.5 63.5,131.5C 62.1667,131.5 60.8333,131.5 59.5,131.5C 59.5,127.5 59.5,123.5 59.5,119.5C 58.1667,119.5 56.8333,119.5 55.5,119.5C 55.5,102.167 55.5,84.8333 55.5,67.5C 55.5,66.1667 55.5,64.8333 55.5,63.5C 56.8333,63.5 58.1667,63.5 59.5,63.5C 59.5,62.1667 59.5,60.8333 59.5,59.5C 60.8333,59.5 62.1667,59.5 63.5,59.5C 63.5,60.8333 63.5,62.1667 63.5,63.5C 67.5,63.5 71.5,63.5 75.5,63.5C 75.5,62.1667 75.5,60.8333 75.5,59.5C 78.1667,59.5 80.8333,59.5 83.5,59.5C 83.5,58.1667 83.5,56.8333 83.5,55.5C 84.8333,55.5 86.1667,55.5 87.5,55.5C 87.5,54.1667 87.5,52.8333 87.5,51.5C 94.1667,51.5 100.833,51.5 107.5,51.5C 107.5,52.8333 107.5,54.1667 107.5,55.5C 108.833,55.5 110.167,55.5 111.5,55.5C 111.5,50.1667 111.5,44.8333 111.5,39.5C 112.833,39.5 114.167,39.5 115.5,39.5C 115.5,38.1667 115.5,36.8333 115.5,35.5 Z"/></g>
<g><path style="opacity:1" fill="#0d0d0d" d="M 171.5,35.5 C 174.167,35.5 176.833,35.5 179.5,35.5C 179.5,36.8333 179.5,38.1667 179.5,39.5C 178.167,39.5 176.833,39.5 175.5,39.5C 174.167,39.5 172.833,39.5 171.5,39.5C 171.5,38.1667 171.5,36.8333 171.5,35.5 Z"/></g>
<g><path style="opacity:1" fill="#0d0d0d" d="M 91.5,39.5 C 91.5,40.8333 91.5,42.1667 91.5,43.5C 88.8333,43.5 86.1667,43.5 83.5,43.5C 83.5,42.1667 83.5,40.8333 83.5,39.5C 86.1667,39.5 88.8333,39.5 91.5,39.5 Z"/></g>
<g><path style="opacity:1" fill="#746f6b" d="M 99.5,39.5 C 100.833,39.5 102.167,39.5 103.5,39.5C 103.5,40.8333 103.5,42.1667 103.5,43.5C 102.167,43.5 100.833,43.5 99.5,43.5C 99.5,42.1667 99.5,40.8333 99.5,39.5 Z"/></g>
<g><path style="opacity:1" fill="#746f6b" d="M 111.5,39.5 C 111.5,44.8333 111.5,50.1667 111.5,55.5C 110.167,55.5 108.833,55.5 107.5,55.5C 107.5,54.1667 107.5,52.8333 107.5,51.5C 100.833,51.5 94.1667,51.5 87.5,51.5C 87.5,50.1667 87.5,48.8333 87.5,47.5C 86.1667,47.5 84.8333,47.5 83.5,47.5C 83.5,46.1667 83.5,44.8333 83.5,43.5C 86.1667,43.5 88.8333,43.5 91.5,43.5C 91.5,44.8333 91.5,46.1667 91.5,47.5C 96.8333,47.5 102.167,47.5 107.5,47.5C 107.5,44.8333 107.5,42.1667 107.5,39.5C 108.833,39.5 110.167,39.5 111.5,39.5 Z"/></g>
<g><path style="opacity:1" fill="#afaca7" d="M 167.5,43.5 C 166.167,43.5 164.833,43.5 163.5,43.5C 163.5,42.1667 163.5,40.8333 163.5,39.5C 164.833,39.5 166.167,39.5 167.5,39.5C 167.5,40.8333 167.5,42.1667 167.5,43.5 Z"/></g>
<g><path style="opacity:1" fill="#afaca7" d="M 175.5,39.5 C 176.833,39.5 178.167,39.5 179.5,39.5C 179.5,40.8333 179.5,42.1667 179.5,43.5C 179.5,44.8333 179.5,46.1667 179.5,47.5C 180.833,47.5 182.167,47.5 183.5,47.5C 183.5,51.5 183.5,55.5 183.5,59.5C 182.167,59.5 180.833,59.5 179.5,59.5C 179.5,60.8333 179.5,62.1667 179.5,63.5C 178.167,63.5 176.833,63.5 175.5,63.5C 175.5,60.8333 175.5,58.1667 175.5,55.5C 174.167,55.5 172.833,55.5 171.5,55.5C 171.5,52.8333 171.5,50.1667 171.5,47.5C 170.167,47.5 168.833,47.5 167.5,47.5C 167.5,46.1667 167.5,44.8333 167.5,43.5C 170.167,43.5 172.833,43.5 175.5,43.5C 175.5,42.1667 175.5,40.8333 175.5,39.5 Z"/></g>
<g><path style="opacity:1" fill="#0d0d0d" d="M 179.5,39.5 C 180.833,39.5 182.167,39.5 183.5,39.5C 183.5,40.8333 183.5,42.1667 183.5,43.5C 182.167,43.5 180.833,43.5 179.5,43.5C 179.5,42.1667 179.5,40.8333 179.5,39.5 Z"/></g>
<g><path style="opacity:1" fill="#0d0d0c" d="M 83.5,43.5 C 83.5,44.8333 83.5,46.1667 83.5,47.5C 80.8333,47.5 78.1667,47.5 75.5,47.5C 75.5,46.1667 75.5,44.8333 75.5,43.5C 78.1667,43.5 80.8333,43.5 83.5,43.5 Z"/></g>
<g><path style="opacity:1" fill="#736f6b" d="M 119.5,47.5 C 119.5,48.8333 119.5,50.1667 119.5,51.5C 118.167,51.5 116.833,51.5 115.5,51.5C 115.5,48.8333 115.5,46.1667 115.5,43.5C 116.833,43.5 118.167,43.5 119.5,43.5C 119.5,44.8333 119.5,46.1667 119.5,47.5 Z"/></g>
<g><path style="opacity:1" fill="#736f6c" d="M 131.5,43.5 C 132.833,43.5 134.167,43.5 135.5,43.5C 135.5,44.8333 135.5,46.1667 135.5,47.5C 134.167,47.5 132.833,47.5 131.5,47.5C 131.5,46.1667 131.5,44.8333 131.5,43.5 Z"/></g>
<g><path style="opacity:1" fill="#746f6b" d="M 179.5,43.5 C 180.833,43.5 182.167,43.5 183.5,43.5C 183.5,44.8333 183.5,46.1667 183.5,47.5C 182.167,47.5 180.833,47.5 179.5,47.5C 179.5,46.1667 179.5,44.8333 179.5,43.5 Z"/></g>
<g><path style="opacity:1" fill="#0d0d0d" d="M 183.5,43.5 C 186.167,43.5 188.833,43.5 191.5,43.5C 191.5,44.8333 191.5,46.1667 191.5,47.5C 190.167,47.5 188.833,47.5 187.5,47.5C 186.167,47.5 184.833,47.5 183.5,47.5C 183.5,46.1667 183.5,44.8333 183.5,43.5 Z"/></g>
<g><path style="opacity:1" fill="#0d0d0c" d="M 75.5,47.5 C 75.5,48.8333 75.5,50.1667 75.5,51.5C 74.1667,51.5 72.8333,51.5 71.5,51.5C 71.5,50.1667 71.5,48.8333 71.5,47.5C 72.8333,47.5 74.1667,47.5 75.5,47.5 Z"/></g>
<g><path style="opacity:1" fill="#afaca6" d="M 75.5,47.5 C 78.1667,47.5 80.8333,47.5 83.5,47.5C 83.5,48.8333 83.5,50.1667 83.5,51.5C 80.8333,51.5 78.1667,51.5 75.5,51.5C 75.5,50.1667 75.5,48.8333 75.5,47.5 Z"/></g>
<g><path style="opacity:1" fill="#3d3834" d="M 83.5,47.5 C 84.8333,47.5 86.1667,47.5 87.5,47.5C 87.5,48.8333 87.5,50.1667 87.5,51.5C 86.1667,51.5 84.8333,51.5 83.5,51.5C 83.5,50.1667 83.5,48.8333 83.5,47.5 Z"/></g>
<g><path style="opacity:1" fill="#afaca6" d="M 119.5,47.5 C 120.833,47.5 122.167,47.5 123.5,47.5C 123.5,48.8333 123.5,50.1667 123.5,51.5C 122.167,51.5 120.833,51.5 119.5,51.5C 119.5,50.1667 119.5,48.8333 119.5,47.5 Z"/></g>
<g><path style="opacity:1" fill="#736f6c" d="M 123.5,47.5 C 124.833,47.5 126.167,47.5 127.5,47.5C 127.5,48.8333 127.5,50.1667 127.5,51.5C 126.167,51.5 124.833,51.5 123.5,51.5C 123.5,50.1667 123.5,48.8333 123.5,47.5 Z"/></g>
<g><path style="opacity:1" fill="#746f6b" d="M 183.5,47.5 C 184.833,47.5 186.167,47.5 187.5,47.5C 187.5,50.1667 187.5,52.8333 187.5,55.5C 188.833,55.5 190.167,55.5 191.5,55.5C 191.5,54.1667 191.5,52.8333 191.5,51.5C 192.833,51.5 194.167,51.5 195.5,51.5C 196.833,51.5 198.167,51.5 199.5,51.5C 199.5,52.8333 199.5,54.1667 199.5,55.5C 199.5,56.8333 199.5,58.1667 199.5,59.5C 199.5,60.8333 199.5,62.1667 199.5,63.5C 200.833,63.5 202.167,63.5 203.5,63.5C 203.5,64.8333 203.5,66.1667 203.5,67.5C 204.833,67.5 206.167,67.5 207.5,67.5C 207.5,70.1667 207.5,72.8333 207.5,75.5C 207.5,76.8333 207.5,78.1667 207.5,79.5C 208.833,79.5 210.167,79.5 211.5,79.5C 211.5,80.8333 211.5,82.1667 211.5,83.5C 211.5,87.5 211.5,91.5 211.5,95.5C 208.833,95.5 206.167,95.5 203.5,95.5C 203.5,94.1667 203.5,92.8333 203.5,91.5C 204.833,91.5 206.167,91.5 207.5,91.5C 207.5,90.1667 207.5,88.8333 207.5,87.5C 204.833,87.5 202.167,87.5 199.5,87.5C 199.5,84.8333 199.5,82.1667 199.5,79.5C 198.167,79.5 196.833,79.5 195.5,79.5C 195.5,78.1667 195.5,76.8333 195.5,75.5C 194.167,75.5 192.833,75.5 191.5,75.5C 191.5,72.8333 191.5,70.1667 191.5,67.5C 188.833,67.5 186.167,67.5 183.5,67.5C 183.5,66.1667 183.5,64.8333 183.5,63.5C 182.167,63.5 180.833,63.5 179.5,63.5C 179.5,62.1667 179.5,60.8333 179.5,59.5C 180.833,59.5 182.167,59.5 183.5,59.5C 183.5,55.5 183.5,51.5 183.5,47.5 Z"/></g>
<g><path style="opacity:1" fill="#afaca7" d="M 187.5,47.5 C 188.833,47.5 190.167,47.5 191.5,47.5C 191.5,48.8333 191.5,50.1667 191.5,51.5C 191.5,52.8333 191.5,54.1667 191.5,55.5C 190.167,55.5 188.833,55.5 187.5,55.5C 187.5,52.8333 187.5,50.1667 187.5,47.5 Z"/></g>
<g><path style="opacity:1" fill="#0d0d0c" d="M 191.5,47.5 C 192.833,47.5 194.167,47.5 195.5,47.5C 195.5,48.8333 195.5,50.1667 195.5,51.5C 194.167,51.5 192.833,51.5 191.5,51.5C 191.5,50.1667 191.5,48.8333 191.5,47.5 Z"/></g>
<g><path style="opacity:1" fill="#0d0d0c" d="M 71.5,51.5 C 71.5,52.8333 71.5,54.1667 71.5,55.5C 70.1667,55.5 68.8333,55.5 67.5,55.5C 67.5,54.1667 67.5,52.8333 67.5,51.5C 68.8333,51.5 70.1667,51.5 71.5,51.5 Z"/></g>
<g><path style="opacity:1" fill="#746f6b" d="M 71.5,51.5 C 72.8333,51.5 74.1667,51.5 75.5,51.5C 78.1667,51.5 80.8333,51.5 83.5,51.5C 84.8333,51.5 86.1667,51.5 87.5,51.5C 87.5,52.8333 87.5,54.1667 87.5,55.5C 86.1667,55.5 84.8333,55.5 83.5,55.5C 83.5,56.8333 83.5,58.1667 83.5,59.5C 80.8333,59.5 78.1667,59.5 75.5,59.5C 75.5,60.8333 75.5,62.1667 75.5,63.5C 71.5,63.5 67.5,63.5 63.5,63.5C 63.5,62.1667 63.5,60.8333 63.5,59.5C 64.8333,59.5 66.1667,59.5 67.5,59.5C 67.5,58.1667 67.5,56.8333 67.5,55.5C 68.8333,55.5 70.1667,55.5 71.5,55.5C 71.5,54.1667 71.5,52.8333 71.5,51.5 Z"/></g>
<g><path style="opacity:1" fill="#746f6b" d="M 127.5,51.5 C 128.833,51.5 130.167,51.5 131.5,51.5C 131.5,52.8333 131.5,54.1667 131.5,55.5C 130.167,55.5 128.833,55.5 127.5,55.5C 127.5,54.1667 127.5,52.8333 127.5,51.5 Z"/></g>
<g><path style="opacity:1" fill="#0c0d0d" d="M 195.5,51.5 C 196.833,51.5 198.167,51.5 199.5,51.5C 199.5,52.8333 199.5,54.1667 199.5,55.5C 198.167,55.5 196.833,55.5 195.5,55.5C 195.5,54.1667 195.5,52.8333 195.5,51.5 Z"/></g>
<g><path style="opacity:1" fill="#0d0d0d" d="M 67.5,55.5 C 67.5,56.8333 67.5,58.1667 67.5,59.5C 66.1667,59.5 64.8333,59.5 63.5,59.5C 63.5,58.1667 63.5,56.8333 63.5,55.5C 64.8333,55.5 66.1667,55.5 67.5,55.5 Z"/></g>
<g><path style="opacity:1" fill="#746f6b" d="M 171.5,55.5 C 172.833,55.5 174.167,55.5 175.5,55.5C 175.5,58.1667 175.5,60.8333 175.5,63.5C 174.167,63.5 172.833,63.5 171.5,63.5C 171.5,60.8333 171.5,58.1667 171.5,55.5 Z"/></g>
<g><path style="opacity:1" fill="#0d0d0c" d="M 199.5,55.5 C 200.833,55.5 202.167,55.5 203.5,55.5C 203.5,56.8333 203.5,58.1667 203.5,59.5C 202.167,59.5 200.833,59.5 199.5,59.5C 199.5,58.1667 199.5,56.8333 199.5,55.5 Z"/></g>
<g><path style="opacity:1" fill="#b0aca7" d="M 199.5,59.5 C 200.833,59.5 202.167,59.5 203.5,59.5C 203.5,60.8333 203.5,62.1667 203.5,63.5C 202.167,63.5 200.833,63.5 199.5,63.5C 199.5,62.1667 199.5,60.8333 199.5,59.5 Z"/></g>
<g><path style="opacity:1" fill="#0d0d0d" d="M 203.5,59.5 C 204.833,59.5 206.167,59.5 207.5,59.5C 207.5,62.1667 207.5,64.8333 207.5,67.5C 206.167,67.5 204.833,67.5 203.5,67.5C 203.5,66.1667 203.5,64.8333 203.5,63.5C 203.5,62.1667 203.5,60.8333 203.5,59.5 Z"/></g>
<g><path style="opacity:1" fill="#73706b" d="M 175.5,63.5 C 176.833,63.5 178.167,63.5 179.5,63.5C 179.5,64.8333 179.5,66.1667 179.5,67.5C 178.167,67.5 176.833,67.5 175.5,67.5C 175.5,66.1667 175.5,64.8333 175.5,63.5 Z"/></g>
<g><path style="opacity:1" fill="#0c0d0c" d="M 55.5,67.5 C 55.5,84.8333 55.5,102.167 55.5,119.5C 54.1667,119.5 52.8333,119.5 51.5,119.5C 51.5,102.167 51.5,84.8333 51.5,67.5C 52.8333,67.5 54.1667,67.5 55.5,67.5 Z"/></g>
<g><path style="opacity:1" fill="#73706b" d="M 91.5,71.5 C 90.1667,71.5 88.8333,71.5 87.5,71.5C 87.5,70.1667 87.5,68.8333 87.5,67.5C 88.8333,67.5 90.1667,67.5 91.5,67.5C 91.5,68.8333 91.5,70.1667 91.5,71.5 Z"/></g>
<g><path style="opacity:1" fill="#623116" d="M 111.5,71.5 C 108.833,71.5 106.167,71.5 103.5,71.5C 103.5,70.1667 103.5,68.8333 103.5,67.5C 106.167,67.5 108.833,67.5 111.5,67.5C 111.5,68.8333 111.5,70.1667 111.5,71.5 Z"/></g>
<g><path style="opacity:1" fill="#0c0d0c" d="M 207.5,67.5 C 208.833,67.5 210.167,67.5 211.5,67.5C 211.5,70.1667 211.5,72.8333 211.5,75.5C 210.167,75.5 208.833,75.5 207.5,75.5C 207.5,72.8333 207.5,70.1667 207.5,67.5 Z"/></g>
<g><path style="opacity:1" fill="#73706b" d="M 87.5,71.5 C 87.5,72.8333 87.5,74.1667 87.5,75.5C 84.8333,75.5 82.1667,75.5 79.5,75.5C 79.5,74.1667 79.5,72.8333 79.5,71.5C 82.1667,71.5 84.8333,71.5 87.5,71.5 Z"/></g>
<g><path style="opacity:1" fill="#312d28" d="M 87.5,71.5 C 88.8333,71.5 90.1667,71.5 91.5,71.5C 91.5,72.8333 91.5,74.1667 91.5,75.5C 90.1667,75.5 88.8333,75.5 87.5,75.5C 87.5,74.1667 87.5,72.8333 87.5,71.5 Z"/></g>
<g><path style="opacity:1" fill="#623116" d="M 91.5,71.5 C 95.5,71.5 99.5,71.5 103.5,71.5C 103.5,72.8333 103.5,74.1667 103.5,75.5C 99.5,75.5 95.5,75.5 91.5,75.5C 91.5,74.1667 91.5,72.8333 91.5,71.5 Z"/></g>
<g><path style="opacity:1" fill="#d09c7c" d="M 103.5,71.5 C 106.167,71.5 108.833,71.5 111.5,71.5C 111.5,72.8333 111.5,74.1667 111.5,75.5C 108.833,75.5 106.167,75.5 103.5,75.5C 103.5,74.1667 103.5,72.8333 103.5,71.5 Z"/></g>
<g><path style="opacity:1" fill="#623116" d="M 111.5,71.5 C 130.167,71.5 148.833,71.5 167.5,71.5C 167.5,72.8333 167.5,74.1667 167.5,75.5C 158.167,75.5 148.833,75.5 139.5,75.5C 130.167,75.5 120.833,75.5 111.5,75.5C 111.5,74.1667 111.5,72.8333 111.5,71.5 Z"/></g>
<g><path style="opacity:1" fill="#73706b" d="M 79.5,75.5 C 79.5,76.8333 79.5,78.1667 79.5,79.5C 78.1667,79.5 76.8333,79.5 75.5,79.5C 75.5,78.1667 75.5,76.8333 75.5,75.5C 76.8333,75.5 78.1667,75.5 79.5,75.5 Z"/></g>
<g><path style="opacity:1" fill="#312d28" d="M 79.5,75.5 C 82.1667,75.5 84.8333,75.5 87.5,75.5C 87.5,76.8333 87.5,78.1667 87.5,79.5C 84.8333,79.5 82.1667,79.5 79.5,79.5C 79.5,78.1667 79.5,76.8333 79.5,75.5 Z"/></g>
<g><path style="opacity:1" fill="#623116" d="M 87.5,75.5 C 88.8333,75.5 90.1667,75.5 91.5,75.5C 91.5,76.8333 91.5,78.1667 91.5,79.5C 90.1667,79.5 88.8333,79.5 87.5,79.5C 87.5,78.1667 87.5,76.8333 87.5,75.5 Z"/></g>
<g><path style="opacity:1" fill="#fed4b7" d="M 91.5,75.5 C 95.5,75.5 99.5,75.5 103.5,75.5C 106.167,75.5 108.833,75.5 111.5,75.5C 120.833,75.5 130.167,75.5 139.5,75.5C 139.5,76.8333 139.5,78.1667 139.5,79.5C 144.833,79.5 150.167,79.5 155.5,79.5C 155.5,80.8333 155.5,82.1667 155.5,83.5C 162.167,83.5 168.833,83.5 175.5,83.5C 178.167,83.5 180.833,83.5 183.5,83.5C 184.833,83.5 186.167,83.5 187.5,83.5C 187.5,84.8333 187.5,86.1667 187.5,87.5C 187.5,90.1667 187.5,92.8333 187.5,95.5C 186.167,95.5 184.833,95.5 183.5,95.5C 183.5,98.1667 183.5,100.833 183.5,103.5C 180.833,103.5 178.167,103.5 175.5,103.5C 175.5,106.167 175.5,108.833 175.5,111.5C 172.833,111.5 170.167,111.5 167.5,111.5C 167.5,110.167 167.5,108.833 167.5,107.5C 162.167,107.5 156.833,107.5 151.5,107.5C 147.5,107.5 143.5,107.5 139.5,107.5C 139.5,108.833 139.5,110.167 139.5,111.5C 131.5,111.5 123.5,111.5 115.5,111.5C 114.167,111.5 112.833,111.5 111.5,111.5C 111.5,110.167 111.5,108.833 111.5,107.5C 103.5,107.5 95.5,107.5 87.5,107.5C 87.5,108.833 87.5,110.167 87.5,111.5C 86.1667,111.5 84.8333,111.5 83.5,111.5C 83.5,112.833 83.5,114.167 83.5,115.5C 82.1667,115.5 80.8333,115.5 79.5,115.5C 79.5,116.833 79.5,118.167 79.5,119.5C 76.8333,119.5 74.1667,119.5 71.5,119.5C 71.5,112.833 71.5,106.167 71.5,99.5C 72.8333,99.5 74.1667,99.5 75.5,99.5C 75.5,95.5 75.5,91.5 75.5,87.5C 76.8333,87.5 78.1667,87.5 79.5,87.5C 79.5,86.1667 79.5,84.8333 79.5,83.5C 82.1667,83.5 84.8333,83.5 87.5,83.5C 87.5,82.1667 87.5,80.8333 87.5,79.5C 88.8333,79.5 90.1667,79.5 91.5,79.5C 91.5,78.1667 91.5,76.8333 91.5,75.5 Z"/></g>
<g><path style="opacity:1" fill="#d09c7c" d="M 139.5,75.5 C 148.833,75.5 158.167,75.5 167.5,75.5C 167.5,76.8333 167.5,78.1667 167.5,79.5C 170.167,79.5 172.833,79.5 175.5,79.5C 175.5,80.8333 175.5,82.1667 175.5,83.5C 168.833,83.5 162.167,83.5 155.5,83.5C 155.5,82.1667 155.5,80.8333 155.5,79.5C 150.167,79.5 144.833,79.5 139.5,79.5C 139.5,78.1667 139.5,76.8333 139.5,75.5 Z"/></g>
<g><path style="opacity:1" fill="#623116" d="M 167.5,75.5 C 170.167,75.5 172.833,75.5 175.5,75.5C 175.5,76.8333 175.5,78.1667 175.5,79.5C 172.833,79.5 170.167,79.5 167.5,79.5C 167.5,78.1667 167.5,76.8333 167.5,75.5 Z"/></g>
<g><path style="opacity:1" fill="#afada6" d="M 207.5,75.5 C 208.833,75.5 210.167,75.5 211.5,75.5C 211.5,76.8333 211.5,78.1667 211.5,79.5C 210.167,79.5 208.833,79.5 207.5,79.5C 207.5,78.1667 207.5,76.8333 207.5,75.5 Z"/></g>
<g><path style="opacity:1" fill="#0c0d0c" d="M 211.5,75.5 C 212.833,75.5 214.167,75.5 215.5,75.5C 215.5,78.1667 215.5,80.8333 215.5,83.5C 214.167,83.5 212.833,83.5 211.5,83.5C 211.5,82.1667 211.5,80.8333 211.5,79.5C 211.5,78.1667 211.5,76.8333 211.5,75.5 Z"/></g>
<g><path style="opacity:1" fill="#73706b" d="M 75.5,79.5 C 75.5,80.8333 75.5,82.1667 75.5,83.5C 74.1667,83.5 72.8333,83.5 71.5,83.5C 71.5,82.1667 71.5,80.8333 71.5,79.5C 72.8333,79.5 74.1667,79.5 75.5,79.5 Z"/></g>
<g><path style="opacity:1" fill="#312d28" d="M 75.5,79.5 C 76.8333,79.5 78.1667,79.5 79.5,79.5C 79.5,80.8333 79.5,82.1667 79.5,83.5C 78.1667,83.5 76.8333,83.5 75.5,83.5C 75.5,82.1667 75.5,80.8333 75.5,79.5 Z"/></g>
<g><path style="opacity:1" fill="#623116" d="M 79.5,79.5 C 82.1667,79.5 84.8333,79.5 87.5,79.5C 87.5,80.8333 87.5,82.1667 87.5,83.5C 84.8333,83.5 82.1667,83.5 79.5,83.5C 79.5,82.1667 79.5,80.8333 79.5,79.5 Z"/></g>
<g><path style="opacity:1" fill="#623116" d="M 175.5,79.5 C 178.167,79.5 180.833,79.5 183.5,79.5C 183.5,80.8333 183.5,82.1667 183.5,83.5C 180.833,83.5 178.167,83.5 175.5,83.5C 175.5,82.1667 175.5,80.8333 175.5,79.5 Z"/></g>
<g><path style="opacity:1" fill="#623116" d="M 75.5,83.5 C 76.8333,83.5 78.1667,83.5 79.5,83.5C 79.5,84.8333 79.5,86.1667 79.5,87.5C 78.1667,87.5 76.8333,87.5 75.5,87.5C 75.5,86.1667 75.5,84.8333 75.5,83.5 Z"/></g>
<g><path style="opacity:1" fill="#623116" d="M 183.5,83.5 C 184.833,83.5 186.167,83.5 187.5,83.5C 187.5,84.8333 187.5,86.1667 187.5,87.5C 186.167,87.5 184.833,87.5 183.5,87.5C 183.5,86.1667 183.5,84.8333 183.5,83.5 Z"/></g>
<g><path style="opacity:1" fill="#afada6" d="M 211.5,83.5 C 212.833,83.5 214.167,83.5 215.5,83.5C 215.5,87.5 215.5,91.5 215.5,95.5C 214.167,95.5 212.833,95.5 211.5,95.5C 211.5,91.5 211.5,87.5 211.5,83.5 Z"/></g>
<g><path style="opacity:1" fill="#0c0d0c" d="M 215.5,83.5 C 216.833,83.5 218.167,83.5 219.5,83.5C 219.5,91.5 219.5,99.5 219.5,107.5C 218.167,107.5 216.833,107.5 215.5,107.5C 215.5,103.5 215.5,99.5 215.5,95.5C 215.5,91.5 215.5,87.5 215.5,83.5 Z"/></g>
<g><path style="opacity:1" fill="#623116" d="M 75.5,87.5 C 75.5,91.5 75.5,95.5 75.5,99.5C 74.1667,99.5 72.8333,99.5 71.5,99.5C 71.5,95.5 71.5,91.5 71.5,87.5C 72.8333,87.5 74.1667,87.5 75.5,87.5 Z"/></g>
<g><path style="opacity:1" fill="#623116" d="M 187.5,87.5 C 188.833,87.5 190.167,87.5 191.5,87.5C 191.5,90.1667 191.5,92.8333 191.5,95.5C 190.167,95.5 188.833,95.5 187.5,95.5C 187.5,92.8333 187.5,90.1667 187.5,87.5 Z"/></g>
<g><path style="opacity:1" fill="#73706b" d="M 67.5,99.5 C 66.1667,99.5 64.8333,99.5 63.5,99.5C 63.5,98.1667 63.5,96.8333 63.5,95.5C 64.8333,95.5 66.1667,95.5 67.5,95.5C 67.5,96.8333 67.5,98.1667 67.5,99.5 Z"/></g>
<g><path style="opacity:1" fill="#d7a485" d="M 187.5,95.5 C 188.833,95.5 190.167,95.5 191.5,95.5C 191.5,100.833 191.5,106.167 191.5,111.5C 192.833,111.5 194.167,111.5 195.5,111.5C 195.5,114.167 195.5,116.833 195.5,119.5C 194.167,119.5 192.833,119.5 191.5,119.5C 190.167,119.5 188.833,119.5 187.5,119.5C 187.5,118.167 187.5,116.833 187.5,115.5C 183.5,115.5 179.5,115.5 175.5,115.5C 175.5,114.167 175.5,112.833 175.5,111.5C 175.5,108.833 175.5,106.167 175.5,103.5C 178.167,103.5 180.833,103.5 183.5,103.5C 183.5,100.833 183.5,98.1667 183.5,95.5C 184.833,95.5 186.167,95.5 187.5,95.5 Z"/></g>
<g><path style="opacity:1" fill="#623116" d="M 191.5,95.5 C 192.833,95.5 194.167,95.5 195.5,95.5C 195.5,100.833 195.5,106.167 195.5,111.5C 194.167,111.5 192.833,111.5 191.5,111.5C 191.5,106.167 191.5,100.833 191.5,95.5 Z"/></g>
<g><path style="opacity:1" fill="#73706b" d="M 211.5,95.5 C 212.833,95.5 214.167,95.5 215.5,95.5C 215.5,99.5 215.5,103.5 215.5,107.5C 214.167,107.5 212.833,107.5 211.5,107.5C 211.5,103.5 211.5,99.5 211.5,95.5 Z"/></g>
<g><path style="opacity:1" fill="#68361c" d="M 67.5,99.5 C 68.8333,99.5 70.1667,99.5 71.5,99.5C 71.5,106.167 71.5,112.833 71.5,119.5C 71.5,120.833 71.5,122.167 71.5,123.5C 70.1667,123.5 68.8333,123.5 67.5,123.5C 67.5,124.833 67.5,126.167 67.5,127.5C 66.1667,127.5 64.8333,127.5 63.5,127.5C 63.5,124.833 63.5,122.167 63.5,119.5C 64.8333,119.5 66.1667,119.5 67.5,119.5C 67.5,112.833 67.5,106.167 67.5,99.5 Z"/></g>
<g><path style="opacity:1" fill="#d09c7c" d="M 111.5,111.5 C 103.5,111.5 95.5,111.5 87.5,111.5C 87.5,110.167 87.5,108.833 87.5,107.5C 95.5,107.5 103.5,107.5 111.5,107.5C 111.5,108.833 111.5,110.167 111.5,111.5 Z"/></g>
<g><path style="opacity:1" fill="#d09c7c" d="M 151.5,107.5 C 151.5,108.833 151.5,110.167 151.5,111.5C 147.5,111.5 143.5,111.5 139.5,111.5C 139.5,110.167 139.5,108.833 139.5,107.5C 143.5,107.5 147.5,107.5 151.5,107.5 Z"/></g>
<g><path style="opacity:1" fill="#765547" d="M 151.5,107.5 C 156.833,107.5 162.167,107.5 167.5,107.5C 167.5,108.833 167.5,110.167 167.5,111.5C 170.167,111.5 172.833,111.5 175.5,111.5C 175.5,112.833 175.5,114.167 175.5,115.5C 179.5,115.5 183.5,115.5 187.5,115.5C 187.5,116.833 187.5,118.167 187.5,119.5C 182.167,119.5 176.833,119.5 171.5,119.5C 171.5,118.167 171.5,116.833 171.5,115.5C 163.5,115.5 155.5,115.5 147.5,115.5C 147.5,116.833 147.5,118.167 147.5,119.5C 146.167,119.5 144.833,119.5 143.5,119.5C 142.167,119.5 140.833,119.5 139.5,119.5C 139.5,118.167 139.5,116.833 139.5,115.5C 139.5,114.167 139.5,112.833 139.5,111.5C 143.5,111.5 147.5,111.5 151.5,111.5C 151.5,110.167 151.5,108.833 151.5,107.5 Z"/></g>
<g><path style="opacity:1" fill="#0c0d0c" d="M 211.5,107.5 C 212.833,107.5 214.167,107.5 215.5,107.5C 215.5,114.167 215.5,120.833 215.5,127.5C 214.167,127.5 212.833,127.5 211.5,127.5C 211.5,120.833 211.5,114.167 211.5,107.5 Z"/></g>
<g><path style="opacity:1" fill="#6e5246" d="M 87.5,111.5 C 95.5,111.5 103.5,111.5 111.5,111.5C 112.833,111.5 114.167,111.5 115.5,111.5C 115.5,112.833 115.5,114.167 115.5,115.5C 115.5,116.833 115.5,118.167 115.5,119.5C 111.5,119.5 107.5,119.5 103.5,119.5C 95.5,119.5 87.5,119.5 79.5,119.5C 79.5,118.167 79.5,116.833 79.5,115.5C 80.8333,115.5 82.1667,115.5 83.5,115.5C 83.5,114.167 83.5,112.833 83.5,111.5C 84.8333,111.5 86.1667,111.5 87.5,111.5 Z"/></g>
<g><path style="opacity:1" fill="#d09c7c" d="M 115.5,111.5 C 123.5,111.5 131.5,111.5 139.5,111.5C 139.5,112.833 139.5,114.167 139.5,115.5C 135.5,115.5 131.5,115.5 127.5,115.5C 127.5,116.833 127.5,118.167 127.5,119.5C 124.833,119.5 122.167,119.5 119.5,119.5C 119.5,118.167 119.5,116.833 119.5,115.5C 118.167,115.5 116.833,115.5 115.5,115.5C 115.5,114.167 115.5,112.833 115.5,111.5 Z"/></g>
<g><path style="opacity:1" fill="#69371d" d="M 195.5,111.5 C 196.833,111.5 198.167,111.5 199.5,111.5C 199.5,118.167 199.5,124.833 199.5,131.5C 198.167,131.5 196.833,131.5 195.5,131.5C 195.5,130.167 195.5,128.833 195.5,127.5C 195.5,126.167 195.5,124.833 195.5,123.5C 194.167,123.5 192.833,123.5 191.5,123.5C 191.5,122.167 191.5,120.833 191.5,119.5C 192.833,119.5 194.167,119.5 195.5,119.5C 195.5,116.833 195.5,114.167 195.5,111.5 Z"/></g>
<g><path style="opacity:1" fill="#392018" d="M 171.5,119.5 C 163.5,119.5 155.5,119.5 147.5,119.5C 147.5,118.167 147.5,116.833 147.5,115.5C 155.5,115.5 163.5,115.5 171.5,115.5C 171.5,116.833 171.5,118.167 171.5,119.5 Z"/></g>
<g><path style="opacity:1" fill="#0c0d0c" d="M 55.5,119.5 C 56.8333,119.5 58.1667,119.5 59.5,119.5C 59.5,123.5 59.5,127.5 59.5,131.5C 58.1667,131.5 56.8333,131.5 55.5,131.5C 55.5,127.5 55.5,123.5 55.5,119.5 Z"/></g>
<g><path style="opacity:1" fill="#392018" d="M 71.5,119.5 C 74.1667,119.5 76.8333,119.5 79.5,119.5C 79.5,120.833 79.5,122.167 79.5,123.5C 78.1667,123.5 76.8333,123.5 75.5,123.5C 75.5,124.833 75.5,126.167 75.5,127.5C 75.5,131.5 75.5,135.5 75.5,139.5C 74.1667,139.5 72.8333,139.5 71.5,139.5C 71.5,136.833 71.5,134.167 71.5,131.5C 71.5,130.167 71.5,128.833 71.5,127.5C 70.1667,127.5 68.8333,127.5 67.5,127.5C 67.5,126.167 67.5,124.833 67.5,123.5C 68.8333,123.5 70.1667,123.5 71.5,123.5C 71.5,122.167 71.5,120.833 71.5,119.5 Z"/></g>
<g><path style="opacity:1" fill="#855f44" d="M 79.5,119.5 C 87.5,119.5 95.5,119.5 103.5,119.5C 103.5,120.833 103.5,122.167 103.5,123.5C 96.8333,123.5 90.1667,123.5 83.5,123.5C 82.1667,123.5 80.8333,123.5 79.5,123.5C 79.5,122.167 79.5,120.833 79.5,119.5 Z"/></g>
<g><path style="opacity:1" fill="#392018" d="M 103.5,119.5 C 107.5,119.5 111.5,119.5 115.5,119.5C 115.5,120.833 115.5,122.167 115.5,123.5C 118.167,123.5 120.833,123.5 123.5,123.5C 123.5,124.833 123.5,126.167 123.5,127.5C 122.167,127.5 120.833,127.5 119.5,127.5C 119.5,130.167 119.5,132.833 119.5,135.5C 119.5,136.833 119.5,138.167 119.5,139.5C 118.167,139.5 116.833,139.5 115.5,139.5C 115.5,135.5 115.5,131.5 115.5,127.5C 114.167,127.5 112.833,127.5 111.5,127.5C 111.5,126.167 111.5,124.833 111.5,123.5C 108.833,123.5 106.167,123.5 103.5,123.5C 103.5,122.167 103.5,120.833 103.5,119.5 Z"/></g>
<g><path style="opacity:1" fill="#392018" d="M 139.5,119.5 C 140.833,119.5 142.167,119.5 143.5,119.5C 143.5,120.833 143.5,122.167 143.5,123.5C 142.167,123.5 140.833,123.5 139.5,123.5C 139.5,124.833 139.5,126.167 139.5,127.5C 138.167,127.5 136.833,127.5 135.5,127.5C 134.167,127.5 132.833,127.5 131.5,127.5C 131.5,124.833 131.5,122.167 131.5,119.5C 134.167,119.5 136.833,119.5 139.5,119.5 Z"/></g>
<g><path style="opacity:1" fill="#885f45" d="M 143.5,119.5 C 144.833,119.5 146.167,119.5 147.5,119.5C 147.5,122.167 147.5,124.833 147.5,127.5C 155.5,127.5 163.5,127.5 171.5,127.5C 171.5,126.167 171.5,124.833 171.5,123.5C 172.833,123.5 174.167,123.5 175.5,123.5C 175.5,127.5 175.5,131.5 175.5,135.5C 176.833,135.5 178.167,135.5 179.5,135.5C 179.5,136.833 179.5,138.167 179.5,139.5C 178.167,139.5 176.833,139.5 175.5,139.5C 174.167,139.5 172.833,139.5 171.5,139.5C 171.5,138.167 171.5,136.833 171.5,135.5C 170.167,135.5 168.833,135.5 167.5,135.5C 167.5,134.167 167.5,132.833 167.5,131.5C 160.833,131.5 154.167,131.5 147.5,131.5C 147.5,132.833 147.5,134.167 147.5,135.5C 144.833,135.5 142.167,135.5 139.5,135.5C 139.5,134.167 139.5,132.833 139.5,131.5C 138.167,131.5 136.833,131.5 135.5,131.5C 135.5,130.167 135.5,128.833 135.5,127.5C 136.833,127.5 138.167,127.5 139.5,127.5C 139.5,126.167 139.5,124.833 139.5,123.5C 140.833,123.5 142.167,123.5 143.5,123.5C 143.5,122.167 143.5,120.833 143.5,119.5 Z"/></g>
<g><path style="opacity:1" fill="#ca997d" d="M 147.5,119.5 C 155.5,119.5 163.5,119.5 171.5,119.5C 171.5,120.833 171.5,122.167 171.5,123.5C 171.5,124.833 171.5,126.167 171.5,127.5C 163.5,127.5 155.5,127.5 147.5,127.5C 147.5,124.833 147.5,122.167 147.5,119.5 Z"/></g>
<g><path style="opacity:1" fill="#392018" d="M 171.5,119.5 C 176.833,119.5 182.167,119.5 187.5,119.5C 188.833,119.5 190.167,119.5 191.5,119.5C 191.5,120.833 191.5,122.167 191.5,123.5C 190.167,123.5 188.833,123.5 187.5,123.5C 186.167,123.5 184.833,123.5 183.5,123.5C 182.167,123.5 180.833,123.5 179.5,123.5C 179.5,126.167 179.5,128.833 179.5,131.5C 179.5,132.833 179.5,134.167 179.5,135.5C 178.167,135.5 176.833,135.5 175.5,135.5C 175.5,131.5 175.5,127.5 175.5,123.5C 174.167,123.5 172.833,123.5 171.5,123.5C 171.5,122.167 171.5,120.833 171.5,119.5 Z"/></g>
<g><path style="opacity:1" fill="#855f44" d="M 79.5,123.5 C 79.5,124.833 79.5,126.167 79.5,127.5C 78.1667,127.5 76.8333,127.5 75.5,127.5C 75.5,126.167 75.5,124.833 75.5,123.5C 76.8333,123.5 78.1667,123.5 79.5,123.5 Z"/></g>
<g><path style="opacity:1" fill="#fed5b7" d="M 79.5,123.5 C 80.8333,123.5 82.1667,123.5 83.5,123.5C 83.5,124.833 83.5,126.167 83.5,127.5C 82.1667,127.5 80.8333,127.5 79.5,127.5C 79.5,126.167 79.5,124.833 79.5,123.5 Z"/></g>
<g><path style="opacity:1" fill="#896045" d="M 103.5,123.5 C 106.167,123.5 108.833,123.5 111.5,123.5C 111.5,124.833 111.5,126.167 111.5,127.5C 112.833,127.5 114.167,127.5 115.5,127.5C 115.5,131.5 115.5,135.5 115.5,139.5C 114.167,139.5 112.833,139.5 111.5,139.5C 111.5,138.167 111.5,136.833 111.5,135.5C 107.5,135.5 103.5,135.5 99.5,135.5C 99.5,134.167 99.5,132.833 99.5,131.5C 95.5,131.5 91.5,131.5 87.5,131.5C 87.5,130.167 87.5,128.833 87.5,127.5C 92.8333,127.5 98.1667,127.5 103.5,127.5C 103.5,126.167 103.5,124.833 103.5,123.5 Z"/></g>
<g><path style="opacity:1" fill="#955c44" d="M 115.5,115.5 C 116.833,115.5 118.167,115.5 119.5,115.5C 119.5,116.833 119.5,118.167 119.5,119.5C 122.167,119.5 124.833,119.5 127.5,119.5C 127.5,118.167 127.5,116.833 127.5,115.5C 131.5,115.5 135.5,115.5 139.5,115.5C 139.5,116.833 139.5,118.167 139.5,119.5C 136.833,119.5 134.167,119.5 131.5,119.5C 131.5,122.167 131.5,124.833 131.5,127.5C 132.833,127.5 134.167,127.5 135.5,127.5C 135.5,128.833 135.5,130.167 135.5,131.5C 135.5,134.167 135.5,136.833 135.5,139.5C 136.833,139.5 138.167,139.5 139.5,139.5C 139.5,142.167 139.5,144.833 139.5,147.5C 140.833,147.5 142.167,147.5 143.5,147.5C 143.5,148.833 143.5,150.167 143.5,151.5C 144.833,151.5 146.167,151.5 147.5,151.5C 147.5,152.833 147.5,154.167 147.5,155.5C 148.833,155.5 150.167,155.5 151.5,155.5C 151.5,158.167 151.5,160.833 151.5,163.5C 150.167,163.5 148.833,163.5 147.5,163.5C 147.5,164.833 147.5,166.167 147.5,167.5C 144.833,167.5 142.167,167.5 139.5,167.5C 139.5,168.833 139.5,170.167 139.5,171.5C 132.833,171.5 126.167,171.5 119.5,171.5C 119.5,170.167 119.5,168.833 119.5,167.5C 116.833,167.5 114.167,167.5 111.5,167.5C 111.5,166.167 111.5,164.833 111.5,163.5C 110.167,163.5 108.833,163.5 107.5,163.5C 107.5,162.167 107.5,160.833 107.5,159.5C 114.167,159.5 120.833,159.5 127.5,159.5C 127.5,158.167 127.5,156.833 127.5,155.5C 131.5,155.5 135.5,155.5 139.5,155.5C 139.5,154.167 139.5,152.833 139.5,151.5C 138.167,151.5 136.833,151.5 135.5,151.5C 135.5,150.167 135.5,148.833 135.5,147.5C 134.167,147.5 132.833,147.5 131.5,147.5C 131.5,143.5 131.5,139.5 131.5,135.5C 130.167,135.5 128.833,135.5 127.5,135.5C 127.5,134.167 127.5,132.833 127.5,131.5C 126.167,131.5 124.833,131.5 123.5,131.5C 123.5,132.833 123.5,134.167 123.5,135.5C 122.167,135.5 120.833,135.5 119.5,135.5C 119.5,132.833 119.5,130.167 119.5,127.5C 120.833,127.5 122.167,127.5 123.5,127.5C 123.5,126.167 123.5,124.833 123.5,123.5C 120.833,123.5 118.167,123.5 115.5,123.5C 115.5,122.167 115.5,120.833 115.5,119.5C 115.5,118.167 115.5,116.833 115.5,115.5 Z"/></g>
<g><path style="opacity:1" fill="#d09c7c" d="M 183.5,123.5 C 184.833,123.5 186.167,123.5 187.5,123.5C 187.5,124.833 187.5,126.167 187.5,127.5C 186.167,127.5 184.833,127.5 183.5,127.5C 183.5,126.167 183.5,124.833 183.5,123.5 Z"/></g>
<g><path style="opacity:1" fill="#926346" d="M 187.5,123.5 C 188.833,123.5 190.167,123.5 191.5,123.5C 191.5,124.833 191.5,126.167 191.5,127.5C 190.167,127.5 188.833,127.5 187.5,127.5C 187.5,126.167 187.5,124.833 187.5,123.5 Z"/></g>
<g><path style="opacity:1" fill="#392018" d="M 191.5,123.5 C 192.833,123.5 194.167,123.5 195.5,123.5C 195.5,124.833 195.5,126.167 195.5,127.5C 194.167,127.5 192.833,127.5 191.5,127.5C 191.5,126.167 191.5,124.833 191.5,123.5 Z"/></g>
<g><path style="opacity:1" fill="#623116" d="M 67.5,127.5 C 68.8333,127.5 70.1667,127.5 71.5,127.5C 71.5,128.833 71.5,130.167 71.5,131.5C 70.1667,131.5 68.8333,131.5 67.5,131.5C 67.5,130.167 67.5,128.833 67.5,127.5 Z"/></g>
<g><path style="opacity:1" fill="#ce9b7d" d="M 83.5,123.5 C 90.1667,123.5 96.8333,123.5 103.5,123.5C 103.5,124.833 103.5,126.167 103.5,127.5C 98.1667,127.5 92.8333,127.5 87.5,127.5C 87.5,128.833 87.5,130.167 87.5,131.5C 91.5,131.5 95.5,131.5 99.5,131.5C 99.5,132.833 99.5,134.167 99.5,135.5C 103.5,135.5 107.5,135.5 111.5,135.5C 111.5,136.833 111.5,138.167 111.5,139.5C 111.5,140.833 111.5,142.167 111.5,143.5C 110.167,143.5 108.833,143.5 107.5,143.5C 107.5,142.167 107.5,140.833 107.5,139.5C 98.1667,139.5 88.8333,139.5 79.5,139.5C 78.1667,139.5 76.8333,139.5 75.5,139.5C 75.5,135.5 75.5,131.5 75.5,127.5C 76.8333,127.5 78.1667,127.5 79.5,127.5C 80.8333,127.5 82.1667,127.5 83.5,127.5C 83.5,126.167 83.5,124.833 83.5,123.5 Z"/></g>
<g><path style="opacity:1" fill="#8f6246" d="M 183.5,123.5 C 183.5,124.833 183.5,126.167 183.5,127.5C 184.833,127.5 186.167,127.5 187.5,127.5C 187.5,128.833 187.5,130.167 187.5,131.5C 184.833,131.5 182.167,131.5 179.5,131.5C 179.5,128.833 179.5,126.167 179.5,123.5C 180.833,123.5 182.167,123.5 183.5,123.5 Z"/></g>
<g><path style="opacity:1" fill="#fdd2b5" d="M 187.5,127.5 C 188.833,127.5 190.167,127.5 191.5,127.5C 192.833,127.5 194.167,127.5 195.5,127.5C 195.5,128.833 195.5,130.167 195.5,131.5C 196.833,131.5 198.167,131.5 199.5,131.5C 199.5,135.5 199.5,139.5 199.5,143.5C 199.5,144.833 199.5,146.167 199.5,147.5C 198.167,147.5 196.833,147.5 195.5,147.5C 195.5,150.167 195.5,152.833 195.5,155.5C 187.5,155.5 179.5,155.5 171.5,155.5C 171.5,156.833 171.5,158.167 171.5,159.5C 166.167,159.5 160.833,159.5 155.5,159.5C 155.5,158.167 155.5,156.833 155.5,155.5C 154.167,155.5 152.833,155.5 151.5,155.5C 150.167,155.5 148.833,155.5 147.5,155.5C 147.5,154.167 147.5,152.833 147.5,151.5C 146.167,151.5 144.833,151.5 143.5,151.5C 143.5,150.167 143.5,148.833 143.5,147.5C 152.833,147.5 162.167,147.5 171.5,147.5C 171.5,146.167 171.5,144.833 171.5,143.5C 172.833,143.5 174.167,143.5 175.5,143.5C 175.5,142.167 175.5,140.833 175.5,139.5C 176.833,139.5 178.167,139.5 179.5,139.5C 179.5,138.167 179.5,136.833 179.5,135.5C 182.167,135.5 184.833,135.5 187.5,135.5C 187.5,134.167 187.5,132.833 187.5,131.5C 187.5,130.167 187.5,128.833 187.5,127.5 Z"/></g>
<g><path style="opacity:1" fill="#0c0d0c" d="M 211.5,127.5 C 211.5,130.167 211.5,132.833 211.5,135.5C 210.167,135.5 208.833,135.5 207.5,135.5C 207.5,132.833 207.5,130.167 207.5,127.5C 208.833,127.5 210.167,127.5 211.5,127.5 Z"/></g>
<g><path style="opacity:1" fill="#0c0d0c" d="M 59.5,131.5 C 60.8333,131.5 62.1667,131.5 63.5,131.5C 63.5,134.167 63.5,136.833 63.5,139.5C 62.1667,139.5 60.8333,139.5 59.5,139.5C 59.5,136.833 59.5,134.167 59.5,131.5 Z"/></g>
<g><path style="opacity:1" fill="#623116" d="M 63.5,131.5 C 64.8333,131.5 66.1667,131.5 67.5,131.5C 67.5,134.167 67.5,136.833 67.5,139.5C 66.1667,139.5 64.8333,139.5 63.5,139.5C 63.5,136.833 63.5,134.167 63.5,131.5 Z"/></g>
<g><path style="opacity:1" fill="#fec5ae" d="M 107.5,159.5 C 107.5,158.167 107.5,156.833 107.5,155.5C 107.5,154.167 107.5,152.833 107.5,151.5C 108.833,151.5 110.167,151.5 111.5,151.5C 111.5,150.167 111.5,148.833 111.5,147.5C 112.833,147.5 114.167,147.5 115.5,147.5C 115.5,146.167 115.5,144.833 115.5,143.5C 116.833,143.5 118.167,143.5 119.5,143.5C 119.5,142.167 119.5,140.833 119.5,139.5C 119.5,138.167 119.5,136.833 119.5,135.5C 120.833,135.5 122.167,135.5 123.5,135.5C 123.5,134.167 123.5,132.833 123.5,131.5C 124.833,131.5 126.167,131.5 127.5,131.5C 127.5,132.833 127.5,134.167 127.5,135.5C 128.833,135.5 130.167,135.5 131.5,135.5C 131.5,139.5 131.5,143.5 131.5,147.5C 132.833,147.5 134.167,147.5 135.5,147.5C 135.5,148.833 135.5,150.167 135.5,151.5C 136.833,151.5 138.167,151.5 139.5,151.5C 139.5,152.833 139.5,154.167 139.5,155.5C 135.5,155.5 131.5,155.5 127.5,155.5C 127.5,156.833 127.5,158.167 127.5,159.5C 120.833,159.5 114.167,159.5 107.5,159.5 Z"/></g>
<g><path style="opacity:1" fill="#392018" d="M 135.5,131.5 C 136.833,131.5 138.167,131.5 139.5,131.5C 139.5,132.833 139.5,134.167 139.5,135.5C 139.5,136.833 139.5,138.167 139.5,139.5C 138.167,139.5 136.833,139.5 135.5,139.5C 135.5,136.833 135.5,134.167 135.5,131.5 Z"/></g>
<g><path style="opacity:1" fill="#d09c7c" d="M 179.5,131.5 C 182.167,131.5 184.833,131.5 187.5,131.5C 187.5,132.833 187.5,134.167 187.5,135.5C 184.833,135.5 182.167,135.5 179.5,135.5C 179.5,134.167 179.5,132.833 179.5,131.5 Z"/></g>
<g><path style="opacity:1" fill="#623116" d="M 199.5,131.5 C 200.833,131.5 202.167,131.5 203.5,131.5C 203.5,135.5 203.5,139.5 203.5,143.5C 202.167,143.5 200.833,143.5 199.5,143.5C 199.5,139.5 199.5,135.5 199.5,131.5 Z"/></g>
<g><path style="opacity:1" fill="#f9ceb0" d="M 67.5,131.5 C 68.8333,131.5 70.1667,131.5 71.5,131.5C 71.5,134.167 71.5,136.833 71.5,139.5C 72.8333,139.5 74.1667,139.5 75.5,139.5C 75.5,142.167 75.5,144.833 75.5,147.5C 76.8333,147.5 78.1667,147.5 79.5,147.5C 80.8333,147.5 82.1667,147.5 83.5,147.5C 83.5,148.833 83.5,150.167 83.5,151.5C 84.8333,151.5 86.1667,151.5 87.5,151.5C 92.8333,151.5 98.1667,151.5 103.5,151.5C 103.5,152.833 103.5,154.167 103.5,155.5C 103.5,156.833 103.5,158.167 103.5,159.5C 102.167,159.5 100.833,159.5 99.5,159.5C 87.5,159.5 75.5,159.5 63.5,159.5C 63.5,158.167 63.5,156.833 63.5,155.5C 63.5,151.5 63.5,147.5 63.5,143.5C 63.5,142.167 63.5,140.833 63.5,139.5C 64.8333,139.5 66.1667,139.5 67.5,139.5C 67.5,136.833 67.5,134.167 67.5,131.5 Z"/></g>
<g><path style="opacity:1" fill="#ce9b7d" d="M 167.5,135.5 C 166.167,135.5 164.833,135.5 163.5,135.5C 163.5,136.833 163.5,138.167 163.5,139.5C 158.167,139.5 152.833,139.5 147.5,139.5C 147.5,140.833 147.5,142.167 147.5,143.5C 146.167,143.5 144.833,143.5 143.5,143.5C 143.5,142.167 143.5,140.833 143.5,139.5C 142.167,139.5 140.833,139.5 139.5,139.5C 139.5,138.167 139.5,136.833 139.5,135.5C 142.167,135.5 144.833,135.5 147.5,135.5C 147.5,134.167 147.5,132.833 147.5,131.5C 154.167,131.5 160.833,131.5 167.5,131.5C 167.5,132.833 167.5,134.167 167.5,135.5 Z"/></g>
<g><path style="opacity:1" fill="#623116" d="M 207.5,135.5 C 208.833,135.5 210.167,135.5 211.5,135.5C 211.5,136.833 211.5,138.167 211.5,139.5C 211.5,140.833 211.5,142.167 211.5,143.5C 210.167,143.5 208.833,143.5 207.5,143.5C 207.5,140.833 207.5,138.167 207.5,135.5 Z"/></g>
<g><path style="opacity:1" fill="#0c0d0c" d="M 211.5,135.5 C 212.833,135.5 214.167,135.5 215.5,135.5C 215.5,136.833 215.5,138.167 215.5,139.5C 214.167,139.5 212.833,139.5 211.5,139.5C 211.5,138.167 211.5,136.833 211.5,135.5 Z"/></g>
<g><path style="opacity:1" fill="#0c0d0c" d="M 59.5,139.5 C 59.5,140.833 59.5,142.167 59.5,143.5C 59.5,147.5 59.5,151.5 59.5,155.5C 58.1667,155.5 56.8333,155.5 55.5,155.5C 55.5,150.167 55.5,144.833 55.5,139.5C 56.8333,139.5 58.1667,139.5 59.5,139.5 Z"/></g>
<g><path style="opacity:1" fill="#623116" d="M 59.5,139.5 C 60.8333,139.5 62.1667,139.5 63.5,139.5C 63.5,140.833 63.5,142.167 63.5,143.5C 62.1667,143.5 60.8333,143.5 59.5,143.5C 59.5,142.167 59.5,140.833 59.5,139.5 Z"/></g>
<g><path style="opacity:1" fill="#855f44" d="M 75.5,139.5 C 76.8333,139.5 78.1667,139.5 79.5,139.5C 79.5,140.833 79.5,142.167 79.5,143.5C 79.5,144.833 79.5,146.167 79.5,147.5C 78.1667,147.5 76.8333,147.5 75.5,147.5C 75.5,144.833 75.5,142.167 75.5,139.5 Z"/></g>
<g><path style="opacity:1" fill="#fed5b7" d="M 79.5,139.5 C 88.8333,139.5 98.1667,139.5 107.5,139.5C 107.5,140.833 107.5,142.167 107.5,143.5C 106.167,143.5 104.833,143.5 103.5,143.5C 96.8333,143.5 90.1667,143.5 83.5,143.5C 82.1667,143.5 80.8333,143.5 79.5,143.5C 79.5,142.167 79.5,140.833 79.5,139.5 Z"/></g>
<g><path style="opacity:1" fill="#392018" d="M 111.5,139.5 C 112.833,139.5 114.167,139.5 115.5,139.5C 115.5,140.833 115.5,142.167 115.5,143.5C 114.167,143.5 112.833,143.5 111.5,143.5C 111.5,142.167 111.5,140.833 111.5,139.5 Z"/></g>
<g><path style="opacity:1" fill="#955a43" d="M 115.5,139.5 C 116.833,139.5 118.167,139.5 119.5,139.5C 119.5,140.833 119.5,142.167 119.5,143.5C 118.167,143.5 116.833,143.5 115.5,143.5C 115.5,142.167 115.5,140.833 115.5,139.5 Z"/></g>
<g><path style="opacity:1" fill="#392018" d="M 139.5,139.5 C 140.833,139.5 142.167,139.5 143.5,139.5C 143.5,140.833 143.5,142.167 143.5,143.5C 144.833,143.5 146.167,143.5 147.5,143.5C 154.167,143.5 160.833,143.5 167.5,143.5C 168.833,143.5 170.167,143.5 171.5,143.5C 171.5,144.833 171.5,146.167 171.5,147.5C 162.167,147.5 152.833,147.5 143.5,147.5C 142.167,147.5 140.833,147.5 139.5,147.5C 139.5,144.833 139.5,142.167 139.5,139.5 Z"/></g>
<g><path style="opacity:1" fill="#fbd0b3" d="M 167.5,135.5 C 168.833,135.5 170.167,135.5 171.5,135.5C 171.5,136.833 171.5,138.167 171.5,139.5C 170.167,139.5 168.833,139.5 167.5,139.5C 167.5,140.833 167.5,142.167 167.5,143.5C 160.833,143.5 154.167,143.5 147.5,143.5C 147.5,142.167 147.5,140.833 147.5,139.5C 152.833,139.5 158.167,139.5 163.5,139.5C 163.5,138.167 163.5,136.833 163.5,135.5C 164.833,135.5 166.167,135.5 167.5,135.5 Z"/></g>
<g><path style="opacity:1" fill="#926346" d="M 171.5,139.5 C 171.5,140.833 171.5,142.167 171.5,143.5C 170.167,143.5 168.833,143.5 167.5,143.5C 167.5,142.167 167.5,140.833 167.5,139.5C 168.833,139.5 170.167,139.5 171.5,139.5 Z"/></g>
<g><path style="opacity:1" fill="#392018" d="M 171.5,139.5 C 172.833,139.5 174.167,139.5 175.5,139.5C 175.5,140.833 175.5,142.167 175.5,143.5C 174.167,143.5 172.833,143.5 171.5,143.5C 171.5,142.167 171.5,140.833 171.5,139.5 Z"/></g>
<g><path style="opacity:1" fill="#a67565" d="M 211.5,139.5 C 212.833,139.5 214.167,139.5 215.5,139.5C 215.5,143.5 215.5,147.5 215.5,151.5C 214.167,151.5 212.833,151.5 211.5,151.5C 211.5,155.5 211.5,159.5 211.5,163.5C 210.167,163.5 208.833,163.5 207.5,163.5C 207.5,167.5 207.5,171.5 207.5,175.5C 206.167,175.5 204.833,175.5 203.5,175.5C 203.5,176.833 203.5,178.167 203.5,179.5C 202.167,179.5 200.833,179.5 199.5,179.5C 199.5,174.167 199.5,168.833 199.5,163.5C 200.833,163.5 202.167,163.5 203.5,163.5C 203.5,162.167 203.5,160.833 203.5,159.5C 203.5,155.5 203.5,151.5 203.5,147.5C 204.833,147.5 206.167,147.5 207.5,147.5C 207.5,146.167 207.5,144.833 207.5,143.5C 208.833,143.5 210.167,143.5 211.5,143.5C 211.5,142.167 211.5,140.833 211.5,139.5 Z"/></g>
<g><path style="opacity:1" fill="#0c0d0c" d="M 215.5,139.5 C 216.833,139.5 218.167,139.5 219.5,139.5C 219.5,143.5 219.5,147.5 219.5,151.5C 218.167,151.5 216.833,151.5 215.5,151.5C 215.5,147.5 215.5,143.5 215.5,139.5 Z"/></g>
<g><path style="opacity:1" fill="#cc7a57" d="M 59.5,143.5 C 60.8333,143.5 62.1667,143.5 63.5,143.5C 63.5,147.5 63.5,151.5 63.5,155.5C 62.1667,155.5 60.8333,155.5 59.5,155.5C 59.5,151.5 59.5,147.5 59.5,143.5 Z"/></g>
<g><path style="opacity:1" fill="#392018" d="M 79.5,143.5 C 80.8333,143.5 82.1667,143.5 83.5,143.5C 83.5,144.833 83.5,146.167 83.5,147.5C 82.1667,147.5 80.8333,147.5 79.5,147.5C 79.5,146.167 79.5,144.833 79.5,143.5 Z"/></g>
<g><path style="opacity:1" fill="#d09c7c" d="M 83.5,143.5 C 90.1667,143.5 96.8333,143.5 103.5,143.5C 103.5,144.833 103.5,146.167 103.5,147.5C 98.1667,147.5 92.8333,147.5 87.5,147.5C 86.1667,147.5 84.8333,147.5 83.5,147.5C 83.5,146.167 83.5,144.833 83.5,143.5 Z"/></g>
<g><path style="opacity:1" fill="#392018" d="M 103.5,143.5 C 104.833,143.5 106.167,143.5 107.5,143.5C 108.833,143.5 110.167,143.5 111.5,143.5C 111.5,144.833 111.5,146.167 111.5,147.5C 108.833,147.5 106.167,147.5 103.5,147.5C 103.5,146.167 103.5,144.833 103.5,143.5 Z"/></g>
<g><path style="opacity:1" fill="#855f44" d="M 111.5,143.5 C 112.833,143.5 114.167,143.5 115.5,143.5C 115.5,144.833 115.5,146.167 115.5,147.5C 114.167,147.5 112.833,147.5 111.5,147.5C 111.5,146.167 111.5,144.833 111.5,143.5 Z"/></g>
<g><path style="opacity:1" fill="#8a5a3e" d="M 199.5,143.5 C 200.833,143.5 202.167,143.5 203.5,143.5C 204.833,143.5 206.167,143.5 207.5,143.5C 207.5,144.833 207.5,146.167 207.5,147.5C 206.167,147.5 204.833,147.5 203.5,147.5C 203.5,151.5 203.5,155.5 203.5,159.5C 202.167,159.5 200.833,159.5 199.5,159.5C 199.5,155.5 199.5,151.5 199.5,147.5C 199.5,146.167 199.5,144.833 199.5,143.5 Z"/></g>
<g><path style="opacity:1" fill="#392018" d="M 83.5,147.5 C 84.8333,147.5 86.1667,147.5 87.5,147.5C 87.5,148.833 87.5,150.167 87.5,151.5C 86.1667,151.5 84.8333,151.5 83.5,151.5C 83.5,150.167 83.5,148.833 83.5,147.5 Z"/></g>
<g><path style="opacity:1" fill="#855f44" d="M 87.5,147.5 C 92.8333,147.5 98.1667,147.5 103.5,147.5C 103.5,148.833 103.5,150.167 103.5,151.5C 98.1667,151.5 92.8333,151.5 87.5,151.5C 87.5,150.167 87.5,148.833 87.5,147.5 Z"/></g>
<g><path style="opacity:1" fill="#d09c7c" d="M 103.5,147.5 C 106.167,147.5 108.833,147.5 111.5,147.5C 111.5,148.833 111.5,150.167 111.5,151.5C 110.167,151.5 108.833,151.5 107.5,151.5C 107.5,152.833 107.5,154.167 107.5,155.5C 106.167,155.5 104.833,155.5 103.5,155.5C 103.5,154.167 103.5,152.833 103.5,151.5C 103.5,150.167 103.5,148.833 103.5,147.5 Z"/></g>
<g><path style="opacity:1" fill="#d09c7c" d="M 199.5,147.5 C 199.5,151.5 199.5,155.5 199.5,159.5C 200.833,159.5 202.167,159.5 203.5,159.5C 203.5,160.833 203.5,162.167 203.5,163.5C 202.167,163.5 200.833,163.5 199.5,163.5C 199.5,168.833 199.5,174.167 199.5,179.5C 199.5,180.833 199.5,182.167 199.5,183.5C 198.167,183.5 196.833,183.5 195.5,183.5C 195.5,180.833 195.5,178.167 195.5,175.5C 194.167,175.5 192.833,175.5 191.5,175.5C 191.5,172.833 191.5,170.167 191.5,167.5C 190.167,167.5 188.833,167.5 187.5,167.5C 187.5,166.167 187.5,164.833 187.5,163.5C 183.5,163.5 179.5,163.5 175.5,163.5C 175.5,167.5 175.5,171.5 175.5,175.5C 176.833,175.5 178.167,175.5 179.5,175.5C 179.5,178.167 179.5,180.833 179.5,183.5C 180.833,183.5 182.167,183.5 183.5,183.5C 183.5,186.167 183.5,188.833 183.5,191.5C 182.167,191.5 180.833,191.5 179.5,191.5C 179.5,194.167 179.5,196.833 179.5,199.5C 178.167,199.5 176.833,199.5 175.5,199.5C 175.5,202.167 175.5,204.833 175.5,207.5C 172.833,207.5 170.167,207.5 167.5,207.5C 167.5,208.833 167.5,210.167 167.5,211.5C 166.167,211.5 164.833,211.5 163.5,211.5C 163.5,212.833 163.5,214.167 163.5,215.5C 159.5,215.5 155.5,215.5 151.5,215.5C 151.5,216.833 151.5,218.167 151.5,219.5C 148.833,219.5 146.167,219.5 143.5,219.5C 143.5,220.833 143.5,222.167 143.5,223.5C 140.833,223.5 138.167,223.5 135.5,223.5C 135.5,224.833 135.5,226.167 135.5,227.5C 134.167,227.5 132.833,227.5 131.5,227.5C 127.5,227.5 123.5,227.5 119.5,227.5C 116.833,227.5 114.167,227.5 111.5,227.5C 111.5,226.167 111.5,224.833 111.5,223.5C 107.5,223.5 103.5,223.5 99.5,223.5C 99.5,222.167 99.5,220.833 99.5,219.5C 96.8333,219.5 94.1667,219.5 91.5,219.5C 91.5,218.167 91.5,216.833 91.5,215.5C 90.1667,215.5 88.8333,215.5 87.5,215.5C 86.1667,215.5 84.8333,215.5 83.5,215.5C 82.1667,215.5 80.8333,215.5 79.5,215.5C 79.5,214.167 79.5,212.833 79.5,211.5C 78.1667,211.5 76.8333,211.5 75.5,211.5C 75.5,210.167 75.5,208.833 75.5,207.5C 75.5,204.833 75.5,202.167 75.5,199.5C 74.1667,199.5 72.8333,199.5 71.5,199.5C 71.5,195.5 71.5,191.5 71.5,187.5C 70.1667,187.5 68.8333,187.5 67.5,187.5C 67.5,180.833 67.5,174.167 67.5,167.5C 66.1667,167.5 64.8333,167.5 63.5,167.5C 63.5,164.833 63.5,162.167 63.5,159.5C 75.5,159.5 87.5,159.5 99.5,159.5C 99.5,160.833 99.5,162.167 99.5,163.5C 98.1667,163.5 96.8333,163.5 95.5,163.5C 95.5,164.833 95.5,166.167 95.5,167.5C 94.1667,167.5 92.8333,167.5 91.5,167.5C 91.5,168.833 91.5,170.167 91.5,171.5C 90.1667,171.5 88.8333,171.5 87.5,171.5C 87.5,174.167 87.5,176.833 87.5,179.5C 90.1667,179.5 92.8333,179.5 95.5,179.5C 95.5,180.833 95.5,182.167 95.5,183.5C 98.1667,183.5 100.833,183.5 103.5,183.5C 103.5,184.833 103.5,186.167 103.5,187.5C 99.5,187.5 95.5,187.5 91.5,187.5C 91.5,188.833 91.5,190.167 91.5,191.5C 92.8333,191.5 94.1667,191.5 95.5,191.5C 95.5,196.833 95.5,202.167 95.5,207.5C 96.8333,207.5 98.1667,207.5 99.5,207.5C 99.5,210.167 99.5,212.833 99.5,215.5C 104.833,215.5 110.167,215.5 115.5,215.5C 115.5,216.833 115.5,218.167 115.5,219.5C 120.833,219.5 126.167,219.5 131.5,219.5C 131.5,218.167 131.5,216.833 131.5,215.5C 135.5,215.5 139.5,215.5 143.5,215.5C 143.5,214.167 143.5,212.833 143.5,211.5C 144.833,211.5 146.167,211.5 147.5,211.5C 147.5,210.167 147.5,208.833 147.5,207.5C 148.833,207.5 150.167,207.5 151.5,207.5C 151.5,206.167 151.5,204.833 151.5,203.5C 152.833,203.5 154.167,203.5 155.5,203.5C 155.5,200.833 155.5,198.167 155.5,195.5C 156.833,195.5 158.167,195.5 159.5,195.5C 159.5,194.167 159.5,192.833 159.5,191.5C 162.167,191.5 164.833,191.5 167.5,191.5C 167.5,188.833 167.5,186.167 167.5,183.5C 166.167,183.5 164.833,183.5 163.5,183.5C 163.5,182.167 163.5,180.833 163.5,179.5C 164.833,179.5 166.167,179.5 167.5,179.5C 167.5,178.167 167.5,176.833 167.5,175.5C 166.167,175.5 164.833,175.5 163.5,175.5C 163.5,172.833 163.5,170.167 163.5,167.5C 160.833,167.5 158.167,167.5 155.5,167.5C 155.5,168.833 155.5,170.167 155.5,171.5C 154.167,171.5 152.833,171.5 151.5,171.5C 151.5,174.167 151.5,176.833 151.5,179.5C 150.167,179.5 148.833,179.5 147.5,179.5C 147.5,178.167 147.5,176.833 147.5,175.5C 142.167,175.5 136.833,175.5 131.5,175.5C 127.5,175.5 123.5,175.5 119.5,175.5C 119.5,174.167 119.5,172.833 119.5,171.5C 126.167,171.5 132.833,171.5 139.5,171.5C 139.5,170.167 139.5,168.833 139.5,167.5C 142.167,167.5 144.833,167.5 147.5,167.5C 147.5,166.167 147.5,164.833 147.5,163.5C 148.833,163.5 150.167,163.5 151.5,163.5C 151.5,160.833 151.5,158.167 151.5,155.5C 152.833,155.5 154.167,155.5 155.5,155.5C 155.5,156.833 155.5,158.167 155.5,159.5C 160.833,159.5 166.167,159.5 171.5,159.5C 171.5,158.167 171.5,156.833 171.5,155.5C 179.5,155.5 187.5,155.5 195.5,155.5C 195.5,152.833 195.5,150.167 195.5,147.5C 196.833,147.5 198.167,147.5 199.5,147.5 Z"/></g>
<g><path style="opacity:1" fill="#0c0d0c" d="M 215.5,151.5 C 215.5,155.5 215.5,159.5 215.5,163.5C 214.167,163.5 212.833,163.5 211.5,163.5C 211.5,159.5 211.5,155.5 211.5,151.5C 212.833,151.5 214.167,151.5 215.5,151.5 Z"/></g>
<g><path style="opacity:1" fill="#0c0d0c" d="M 59.5,155.5 C 60.8333,155.5 62.1667,155.5 63.5,155.5C 63.5,156.833 63.5,158.167 63.5,159.5C 63.5,162.167 63.5,164.833 63.5,167.5C 62.1667,167.5 60.8333,167.5 59.5,167.5C 59.5,163.5 59.5,159.5 59.5,155.5 Z"/></g>
<g><path style="opacity:1" fill="#926346" d="M 103.5,155.5 C 104.833,155.5 106.167,155.5 107.5,155.5C 107.5,156.833 107.5,158.167 107.5,159.5C 106.167,159.5 104.833,159.5 103.5,159.5C 103.5,158.167 103.5,156.833 103.5,155.5 Z"/></g>
<g><path style="opacity:1" fill="#926346" d="M 99.5,159.5 C 100.833,159.5 102.167,159.5 103.5,159.5C 103.5,160.833 103.5,162.167 103.5,163.5C 102.167,163.5 100.833,163.5 99.5,163.5C 99.5,162.167 99.5,160.833 99.5,159.5 Z"/></g>
<g><path style="opacity:1" fill="#d09c7c" d="M 103.5,159.5 C 104.833,159.5 106.167,159.5 107.5,159.5C 107.5,160.833 107.5,162.167 107.5,163.5C 108.833,163.5 110.167,163.5 111.5,163.5C 111.5,164.833 111.5,166.167 111.5,167.5C 111.5,168.833 111.5,170.167 111.5,171.5C 110.167,171.5 108.833,171.5 107.5,171.5C 107.5,172.833 107.5,174.167 107.5,175.5C 106.167,175.5 104.833,175.5 103.5,175.5C 103.5,174.167 103.5,172.833 103.5,171.5C 102.167,171.5 100.833,171.5 99.5,171.5C 99.5,168.833 99.5,166.167 99.5,163.5C 100.833,163.5 102.167,163.5 103.5,163.5C 103.5,162.167 103.5,160.833 103.5,159.5 Z"/></g>
<g><path style="opacity:1" fill="#926346" d="M 99.5,163.5 C 99.5,166.167 99.5,168.833 99.5,171.5C 100.833,171.5 102.167,171.5 103.5,171.5C 103.5,172.833 103.5,174.167 103.5,175.5C 104.833,175.5 106.167,175.5 107.5,175.5C 108.833,175.5 110.167,175.5 111.5,175.5C 111.5,176.833 111.5,178.167 111.5,179.5C 110.167,179.5 108.833,179.5 107.5,179.5C 106.167,179.5 104.833,179.5 103.5,179.5C 103.5,180.833 103.5,182.167 103.5,183.5C 100.833,183.5 98.1667,183.5 95.5,183.5C 95.5,182.167 95.5,180.833 95.5,179.5C 92.8333,179.5 90.1667,179.5 87.5,179.5C 87.5,176.833 87.5,174.167 87.5,171.5C 88.8333,171.5 90.1667,171.5 91.5,171.5C 91.5,170.167 91.5,168.833 91.5,167.5C 92.8333,167.5 94.1667,167.5 95.5,167.5C 95.5,166.167 95.5,164.833 95.5,163.5C 96.8333,163.5 98.1667,163.5 99.5,163.5 Z"/></g>
<g><path style="opacity:1" fill="#0c0d0c" d="M 211.5,163.5 C 211.5,167.5 211.5,171.5 211.5,175.5C 210.167,175.5 208.833,175.5 207.5,175.5C 207.5,171.5 207.5,167.5 207.5,163.5C 208.833,163.5 210.167,163.5 211.5,163.5 Z"/></g>
<g><path style="opacity:1" fill="#0c0d0c" d="M 63.5,167.5 C 64.8333,167.5 66.1667,167.5 67.5,167.5C 67.5,174.167 67.5,180.833 67.5,187.5C 66.1667,187.5 64.8333,187.5 63.5,187.5C 63.5,180.833 63.5,174.167 63.5,167.5 Z"/></g>
<g><path style="opacity:1" fill="#f7cbad" d="M 111.5,167.5 C 114.167,167.5 116.833,167.5 119.5,167.5C 119.5,168.833 119.5,170.167 119.5,171.5C 119.5,172.833 119.5,174.167 119.5,175.5C 116.833,175.5 114.167,175.5 111.5,175.5C 110.167,175.5 108.833,175.5 107.5,175.5C 107.5,174.167 107.5,172.833 107.5,171.5C 108.833,171.5 110.167,171.5 111.5,171.5C 111.5,170.167 111.5,168.833 111.5,167.5 Z"/></g>
<g><path style="opacity:1" fill="#946449" d="M 163.5,183.5 C 160.833,183.5 158.167,183.5 155.5,183.5C 155.5,184.833 155.5,186.167 155.5,187.5C 154.167,187.5 152.833,187.5 151.5,187.5C 151.5,186.167 151.5,184.833 151.5,183.5C 151.5,182.167 151.5,180.833 151.5,179.5C 151.5,176.833 151.5,174.167 151.5,171.5C 152.833,171.5 154.167,171.5 155.5,171.5C 155.5,170.167 155.5,168.833 155.5,167.5C 158.167,167.5 160.833,167.5 163.5,167.5C 163.5,170.167 163.5,172.833 163.5,175.5C 164.833,175.5 166.167,175.5 167.5,175.5C 167.5,176.833 167.5,178.167 167.5,179.5C 166.167,179.5 164.833,179.5 163.5,179.5C 163.5,180.833 163.5,182.167 163.5,183.5 Z"/></g>
<g><path style="opacity:1" fill="#ad7b69" d="M 111.5,175.5 C 114.167,175.5 116.833,175.5 119.5,175.5C 123.5,175.5 127.5,175.5 131.5,175.5C 131.5,176.833 131.5,178.167 131.5,179.5C 124.833,179.5 118.167,179.5 111.5,179.5C 111.5,178.167 111.5,176.833 111.5,175.5 Z"/></g>
<g><path style="opacity:1" fill="#926346" d="M 131.5,175.5 C 136.833,175.5 142.167,175.5 147.5,175.5C 147.5,176.833 147.5,178.167 147.5,179.5C 144.833,179.5 142.167,179.5 139.5,179.5C 136.833,179.5 134.167,179.5 131.5,179.5C 131.5,178.167 131.5,176.833 131.5,175.5 Z"/></g>
<g><path style="opacity:1" fill="#0c0d0c" d="M 207.5,175.5 C 207.5,178.167 207.5,180.833 207.5,183.5C 204.833,183.5 202.167,183.5 199.5,183.5C 199.5,182.167 199.5,180.833 199.5,179.5C 200.833,179.5 202.167,179.5 203.5,179.5C 203.5,178.167 203.5,176.833 203.5,175.5C 204.833,175.5 206.167,175.5 207.5,175.5 Z"/></g>
<g><path style="opacity:1" fill="#564742" d="M 107.5,179.5 C 107.5,180.833 107.5,182.167 107.5,183.5C 106.167,183.5 104.833,183.5 103.5,183.5C 103.5,182.167 103.5,180.833 103.5,179.5C 104.833,179.5 106.167,179.5 107.5,179.5 Z"/></g>
<g><path style="opacity:1" fill="#b68983" d="M 107.5,179.5 C 108.833,179.5 110.167,179.5 111.5,179.5C 111.5,182.167 111.5,184.833 111.5,187.5C 108.833,187.5 106.167,187.5 103.5,187.5C 103.5,186.167 103.5,184.833 103.5,183.5C 104.833,183.5 106.167,183.5 107.5,183.5C 107.5,182.167 107.5,180.833 107.5,179.5 Z"/></g>
<g><path style="opacity:1" fill="#ecf0ef" d="M 111.5,179.5 C 118.167,179.5 124.833,179.5 131.5,179.5C 134.167,179.5 136.833,179.5 139.5,179.5C 139.5,180.833 139.5,182.167 139.5,183.5C 140.833,183.5 142.167,183.5 143.5,183.5C 143.5,184.833 143.5,186.167 143.5,187.5C 138.167,187.5 132.833,187.5 127.5,187.5C 122.167,187.5 116.833,187.5 111.5,187.5C 111.5,184.833 111.5,182.167 111.5,179.5 Z"/></g>
<g><path style="opacity:1" fill="#564742" d="M 147.5,179.5 C 148.833,179.5 150.167,179.5 151.5,179.5C 151.5,180.833 151.5,182.167 151.5,183.5C 150.167,183.5 148.833,183.5 147.5,183.5C 147.5,182.167 147.5,180.833 147.5,179.5 Z"/></g>
<g><path style="opacity:1" fill="#d09c7c" d="M 163.5,183.5 C 163.5,184.833 163.5,186.167 163.5,187.5C 160.833,187.5 158.167,187.5 155.5,187.5C 155.5,186.167 155.5,184.833 155.5,183.5C 158.167,183.5 160.833,183.5 163.5,183.5 Z"/></g>
<g><path style="opacity:1" fill="#fed5b7" d="M 163.5,183.5 C 164.833,183.5 166.167,183.5 167.5,183.5C 167.5,186.167 167.5,188.833 167.5,191.5C 164.833,191.5 162.167,191.5 159.5,191.5C 159.5,192.833 159.5,194.167 159.5,195.5C 158.167,195.5 156.833,195.5 155.5,195.5C 155.5,198.167 155.5,200.833 155.5,203.5C 154.167,203.5 152.833,203.5 151.5,203.5C 151.5,204.833 151.5,206.167 151.5,207.5C 150.167,207.5 148.833,207.5 147.5,207.5C 147.5,208.833 147.5,210.167 147.5,211.5C 146.167,211.5 144.833,211.5 143.5,211.5C 143.5,212.833 143.5,214.167 143.5,215.5C 139.5,215.5 135.5,215.5 131.5,215.5C 131.5,216.833 131.5,218.167 131.5,219.5C 126.167,219.5 120.833,219.5 115.5,219.5C 115.5,218.167 115.5,216.833 115.5,215.5C 110.167,215.5 104.833,215.5 99.5,215.5C 99.5,212.833 99.5,210.167 99.5,207.5C 98.1667,207.5 96.8333,207.5 95.5,207.5C 95.5,202.167 95.5,196.833 95.5,191.5C 94.1667,191.5 92.8333,191.5 91.5,191.5C 91.5,190.167 91.5,188.833 91.5,187.5C 95.5,187.5 99.5,187.5 103.5,187.5C 103.5,188.833 103.5,190.167 103.5,191.5C 104.833,191.5 106.167,191.5 107.5,191.5C 107.5,194.167 107.5,196.833 107.5,199.5C 108.833,199.5 110.167,199.5 111.5,199.5C 111.5,200.833 111.5,202.167 111.5,203.5C 120.833,203.5 130.167,203.5 139.5,203.5C 139.5,202.167 139.5,200.833 139.5,199.5C 142.167,199.5 144.833,199.5 147.5,199.5C 147.5,196.833 147.5,194.167 147.5,191.5C 148.833,191.5 150.167,191.5 151.5,191.5C 151.5,190.167 151.5,188.833 151.5,187.5C 152.833,187.5 154.167,187.5 155.5,187.5C 158.167,187.5 160.833,187.5 163.5,187.5C 163.5,186.167 163.5,184.833 163.5,183.5 Z"/></g>
<g><path style="opacity:1" fill="#0c0d0c" d="M 195.5,183.5 C 196.833,183.5 198.167,183.5 199.5,183.5C 199.5,191.5 199.5,199.5 199.5,207.5C 198.167,207.5 196.833,207.5 195.5,207.5C 195.5,199.5 195.5,191.5 195.5,183.5 Z"/></g>
<g><path style="opacity:1" fill="#0c0d0c" d="M 67.5,187.5 C 68.8333,187.5 70.1667,187.5 71.5,187.5C 71.5,191.5 71.5,195.5 71.5,199.5C 70.1667,199.5 68.8333,199.5 67.5,199.5C 67.5,195.5 67.5,191.5 67.5,187.5 Z"/></g>
<g><path style="opacity:1" fill="#f2a294" d="M 103.5,187.5 C 106.167,187.5 108.833,187.5 111.5,187.5C 116.833,187.5 122.167,187.5 127.5,187.5C 127.5,188.833 127.5,190.167 127.5,191.5C 132.833,191.5 138.167,191.5 143.5,191.5C 143.5,192.833 143.5,194.167 143.5,195.5C 135.5,195.5 127.5,195.5 119.5,195.5C 119.5,194.167 119.5,192.833 119.5,191.5C 115.5,191.5 111.5,191.5 107.5,191.5C 106.167,191.5 104.833,191.5 103.5,191.5C 103.5,190.167 103.5,188.833 103.5,187.5 Z"/></g>
<g><path style="opacity:1" fill="#b5847b" d="M 139.5,179.5 C 142.167,179.5 144.833,179.5 147.5,179.5C 147.5,180.833 147.5,182.167 147.5,183.5C 148.833,183.5 150.167,183.5 151.5,183.5C 151.5,184.833 151.5,186.167 151.5,187.5C 151.5,188.833 151.5,190.167 151.5,191.5C 150.167,191.5 148.833,191.5 147.5,191.5C 146.167,191.5 144.833,191.5 143.5,191.5C 138.167,191.5 132.833,191.5 127.5,191.5C 127.5,190.167 127.5,188.833 127.5,187.5C 132.833,187.5 138.167,187.5 143.5,187.5C 143.5,186.167 143.5,184.833 143.5,183.5C 142.167,183.5 140.833,183.5 139.5,183.5C 139.5,182.167 139.5,180.833 139.5,179.5 Z"/></g>
<g><path style="opacity:1" fill="#d09c7c" d="M 107.5,191.5 C 111.5,191.5 115.5,191.5 119.5,191.5C 119.5,192.833 119.5,194.167 119.5,195.5C 127.5,195.5 135.5,195.5 143.5,195.5C 143.5,194.167 143.5,192.833 143.5,191.5C 144.833,191.5 146.167,191.5 147.5,191.5C 147.5,194.167 147.5,196.833 147.5,199.5C 144.833,199.5 142.167,199.5 139.5,199.5C 139.5,200.833 139.5,202.167 139.5,203.5C 130.167,203.5 120.833,203.5 111.5,203.5C 111.5,202.167 111.5,200.833 111.5,199.5C 110.167,199.5 108.833,199.5 107.5,199.5C 107.5,196.833 107.5,194.167 107.5,191.5 Z"/></g>
<g><path style="opacity:1" fill="#0c0d0c" d="M 71.5,199.5 C 72.8333,199.5 74.1667,199.5 75.5,199.5C 75.5,202.167 75.5,204.833 75.5,207.5C 74.1667,207.5 72.8333,207.5 71.5,207.5C 71.5,204.833 71.5,202.167 71.5,199.5 Z"/></g>
<g><path style="opacity:1" fill="#0c0d0c" d="M 75.5,207.5 C 76.8333,207.5 78.1667,207.5 79.5,207.5C 79.5,208.833 79.5,210.167 79.5,211.5C 79.5,210.167 79.5,208.833 79.5,207.5C 78.1667,207.5 76.8333,207.5 75.5,207.5 Z"/></g>
<g><path style="opacity:1" fill="#926246" d="M 195.5,183.5 C 195.5,191.5 195.5,199.5 195.5,207.5C 194.167,207.5 192.833,207.5 191.5,207.5C 191.5,211.5 191.5,215.5 191.5,219.5C 191.5,220.833 191.5,222.167 191.5,223.5C 190.167,223.5 188.833,223.5 187.5,223.5C 187.5,227.5 187.5,231.5 187.5,235.5C 186.167,235.5 184.833,235.5 183.5,235.5C 183.5,238.167 183.5,240.833 183.5,243.5C 182.167,243.5 180.833,243.5 179.5,243.5C 179.5,244.833 179.5,246.167 179.5,247.5C 178.167,247.5 176.833,247.5 175.5,247.5C 175.5,248.833 175.5,250.167 175.5,251.5C 178.167,251.5 180.833,251.5 183.5,251.5C 183.5,252.833 183.5,254.167 183.5,255.5C 156.833,255.5 130.167,255.5 103.5,255.5C 103.5,254.167 103.5,252.833 103.5,251.5C 104.833,251.5 106.167,251.5 107.5,251.5C 107.5,248.833 107.5,246.167 107.5,243.5C 106.167,243.5 104.833,243.5 103.5,243.5C 103.5,242.167 103.5,240.833 103.5,239.5C 102.167,239.5 100.833,239.5 99.5,239.5C 99.5,236.833 99.5,234.167 99.5,231.5C 96.8333,231.5 94.1667,231.5 91.5,231.5C 91.5,228.833 91.5,226.167 91.5,223.5C 94.1667,223.5 96.8333,223.5 99.5,223.5C 99.5,224.833 99.5,226.167 99.5,227.5C 102.167,227.5 104.833,227.5 107.5,227.5C 107.5,228.833 107.5,230.167 107.5,231.5C 111.5,231.5 115.5,231.5 119.5,231.5C 119.5,232.833 119.5,234.167 119.5,235.5C 123.5,235.5 127.5,235.5 131.5,235.5C 131.5,234.167 131.5,232.833 131.5,231.5C 139.5,231.5 147.5,231.5 155.5,231.5C 155.5,230.167 155.5,228.833 155.5,227.5C 148.833,227.5 142.167,227.5 135.5,227.5C 135.5,226.167 135.5,224.833 135.5,223.5C 138.167,223.5 140.833,223.5 143.5,223.5C 143.5,222.167 143.5,220.833 143.5,219.5C 146.167,219.5 148.833,219.5 151.5,219.5C 151.5,218.167 151.5,216.833 151.5,215.5C 155.5,215.5 159.5,215.5 163.5,215.5C 163.5,214.167 163.5,212.833 163.5,211.5C 164.833,211.5 166.167,211.5 167.5,211.5C 167.5,210.167 167.5,208.833 167.5,207.5C 170.167,207.5 172.833,207.5 175.5,207.5C 175.5,204.833 175.5,202.167 175.5,199.5C 176.833,199.5 178.167,199.5 179.5,199.5C 179.5,196.833 179.5,194.167 179.5,191.5C 180.833,191.5 182.167,191.5 183.5,191.5C 183.5,188.833 183.5,186.167 183.5,183.5C 182.167,183.5 180.833,183.5 179.5,183.5C 179.5,180.833 179.5,178.167 179.5,175.5C 178.167,175.5 176.833,175.5 175.5,175.5C 175.5,171.5 175.5,167.5 175.5,163.5C 179.5,163.5 183.5,163.5 187.5,163.5C 187.5,164.833 187.5,166.167 187.5,167.5C 188.833,167.5 190.167,167.5 191.5,167.5C 191.5,170.167 191.5,172.833 191.5,175.5C 192.833,175.5 194.167,175.5 195.5,175.5C 195.5,178.167 195.5,180.833 195.5,183.5 Z"/></g>
<g><path style="opacity:1" fill="#623116" d="M 187.5,207.5 C 187.5,208.833 187.5,210.167 187.5,211.5C 184.833,211.5 182.167,211.5 179.5,211.5C 179.5,210.167 179.5,208.833 179.5,207.5C 182.167,207.5 184.833,207.5 187.5,207.5 Z"/></g>
<g><path style="opacity:1" fill="#623116" d="M 191.5,207.5 C 190.167,207.5 188.833,207.5 187.5,207.5C 187.5,204.833 187.5,202.167 187.5,199.5C 188.833,199.5 190.167,199.5 191.5,199.5C 191.5,202.167 191.5,204.833 191.5,207.5 Z"/></g>
<g><path style="opacity:1" fill="#0c0d0c" d="M 191.5,207.5 C 192.833,207.5 194.167,207.5 195.5,207.5C 195.5,211.5 195.5,215.5 195.5,219.5C 194.167,219.5 192.833,219.5 191.5,219.5C 191.5,215.5 191.5,211.5 191.5,207.5 Z"/></g>
<g><path style="opacity:1" fill="#0c0d0c" d="M 79.5,211.5 C 80.8333,211.5 82.1667,211.5 83.5,211.5C 83.5,212.833 83.5,214.167 83.5,215.5C 83.5,214.167 83.5,212.833 83.5,211.5C 82.1667,211.5 80.8333,211.5 79.5,211.5 Z"/></g>
<g><path style="opacity:1" fill="#0c0d0c" d="M 83.5,215.5 C 84.8333,215.5 86.1667,215.5 87.5,215.5C 87.5,218.167 87.5,220.833 87.5,223.5C 86.1667,223.5 84.8333,223.5 83.5,223.5C 83.5,220.833 83.5,218.167 83.5,215.5 Z"/></g>
<g><path style="opacity:1" fill="#623116" d="M 167.5,219.5 C 167.5,218.167 167.5,216.833 167.5,215.5C 170.167,215.5 172.833,215.5 175.5,215.5C 175.5,216.833 175.5,218.167 175.5,219.5C 172.833,219.5 170.167,219.5 167.5,219.5 Z"/></g>
<g><path style="opacity:1" fill="#6d3b21" d="M 87.5,215.5 C 88.8333,215.5 90.1667,215.5 91.5,215.5C 91.5,216.833 91.5,218.167 91.5,219.5C 94.1667,219.5 96.8333,219.5 99.5,219.5C 99.5,220.833 99.5,222.167 99.5,223.5C 96.8333,223.5 94.1667,223.5 91.5,223.5C 90.1667,223.5 88.8333,223.5 87.5,223.5C 87.5,220.833 87.5,218.167 87.5,215.5 Z"/></g>
<g><path style="opacity:1" fill="#623116" d="M 167.5,219.5 C 167.5,220.833 167.5,222.167 167.5,223.5C 164.833,223.5 162.167,223.5 159.5,223.5C 159.5,222.167 159.5,220.833 159.5,219.5C 162.167,219.5 164.833,219.5 167.5,219.5 Z"/></g>
<g><path style="opacity:1" fill="#d09c7c" d="M 191.5,219.5 C 192.833,219.5 194.167,219.5 195.5,219.5C 196.833,219.5 198.167,219.5 199.5,219.5C 199.5,220.833 199.5,222.167 199.5,223.5C 199.5,224.833 199.5,226.167 199.5,227.5C 199.5,228.833 199.5,230.167 199.5,231.5C 200.833,231.5 202.167,231.5 203.5,231.5C 203.5,232.833 203.5,234.167 203.5,235.5C 202.167,235.5 200.833,235.5 199.5,235.5C 199.5,236.833 199.5,238.167 199.5,239.5C 198.167,239.5 196.833,239.5 195.5,239.5C 195.5,240.833 195.5,242.167 195.5,243.5C 194.167,243.5 192.833,243.5 191.5,243.5C 191.5,244.833 191.5,246.167 191.5,247.5C 190.167,247.5 188.833,247.5 187.5,247.5C 186.167,247.5 184.833,247.5 183.5,247.5C 183.5,248.833 183.5,250.167 183.5,251.5C 180.833,251.5 178.167,251.5 175.5,251.5C 175.5,250.167 175.5,248.833 175.5,247.5C 176.833,247.5 178.167,247.5 179.5,247.5C 179.5,246.167 179.5,244.833 179.5,243.5C 180.833,243.5 182.167,243.5 183.5,243.5C 183.5,240.833 183.5,238.167 183.5,235.5C 184.833,235.5 186.167,235.5 187.5,235.5C 187.5,231.5 187.5,227.5 187.5,223.5C 188.833,223.5 190.167,223.5 191.5,223.5C 191.5,222.167 191.5,220.833 191.5,219.5 Z"/></g>
<g><path style="opacity:1" fill="#0c0d0c" d="M 195.5,219.5 C 196.833,219.5 198.167,219.5 199.5,219.5C 199.5,220.833 199.5,222.167 199.5,223.5C 198.167,223.5 196.833,223.5 195.5,223.5C 195.5,222.167 195.5,220.833 195.5,219.5 Z"/></g>
<g><path style="opacity:1" fill="#0c0d0c" d="M 87.5,223.5 C 88.8333,223.5 90.1667,223.5 91.5,223.5C 91.5,226.167 91.5,228.833 91.5,231.5C 91.5,234.167 91.5,236.833 91.5,239.5C 90.1667,239.5 88.8333,239.5 87.5,239.5C 87.5,234.167 87.5,228.833 87.5,223.5 Z"/></g>
<g><path style="opacity:1" fill="#0c0d0c" d="M 199.5,223.5 C 203.5,223.5 207.5,223.5 211.5,223.5C 211.5,224.833 211.5,226.167 211.5,227.5C 207.5,227.5 203.5,227.5 199.5,227.5C 199.5,226.167 199.5,224.833 199.5,223.5 Z"/></g>
<g><path style="opacity:1" fill="#6a381d" d="M 99.5,223.5 C 103.5,223.5 107.5,223.5 111.5,223.5C 111.5,224.833 111.5,226.167 111.5,227.5C 114.167,227.5 116.833,227.5 119.5,227.5C 119.5,228.833 119.5,230.167 119.5,231.5C 115.5,231.5 111.5,231.5 107.5,231.5C 107.5,230.167 107.5,228.833 107.5,227.5C 104.833,227.5 102.167,227.5 99.5,227.5C 99.5,226.167 99.5,224.833 99.5,223.5 Z"/></g>
<g><path style="opacity:1" fill="#926346" d="M 119.5,227.5 C 123.5,227.5 127.5,227.5 131.5,227.5C 131.5,228.833 131.5,230.167 131.5,231.5C 127.5,231.5 123.5,231.5 119.5,231.5C 119.5,230.167 119.5,228.833 119.5,227.5 Z"/></g>
<g><path style="opacity:1" fill="#623116" d="M 131.5,227.5 C 132.833,227.5 134.167,227.5 135.5,227.5C 142.167,227.5 148.833,227.5 155.5,227.5C 155.5,228.833 155.5,230.167 155.5,231.5C 147.5,231.5 139.5,231.5 131.5,231.5C 131.5,230.167 131.5,228.833 131.5,227.5 Z"/></g>
<g><path style="opacity:1" fill="#ae9eea" d="M 199.5,227.5 C 203.5,227.5 207.5,227.5 211.5,227.5C 212.833,227.5 214.167,227.5 215.5,227.5C 215.5,228.833 215.5,230.167 215.5,231.5C 215.5,232.833 215.5,234.167 215.5,235.5C 212.833,235.5 210.167,235.5 207.5,235.5C 207.5,234.167 207.5,232.833 207.5,231.5C 206.167,231.5 204.833,231.5 203.5,231.5C 202.167,231.5 200.833,231.5 199.5,231.5C 199.5,230.167 199.5,228.833 199.5,227.5 Z"/></g>
<g><path style="opacity:1" fill="#0c0d0c" d="M 211.5,227.5 C 212.833,227.5 214.167,227.5 215.5,227.5C 215.5,228.833 215.5,230.167 215.5,231.5C 214.167,231.5 212.833,231.5 211.5,231.5C 211.5,230.167 211.5,228.833 211.5,227.5 Z"/></g>
<g><path style="opacity:1" fill="#d09c7c" d="M 91.5,231.5 C 94.1667,231.5 96.8333,231.5 99.5,231.5C 99.5,234.167 99.5,236.833 99.5,239.5C 100.833,239.5 102.167,239.5 103.5,239.5C 103.5,240.833 103.5,242.167 103.5,243.5C 104.833,243.5 106.167,243.5 107.5,243.5C 107.5,246.167 107.5,248.833 107.5,251.5C 106.167,251.5 104.833,251.5 103.5,251.5C 103.5,252.833 103.5,254.167 103.5,255.5C 99.5,255.5 95.5,255.5 91.5,255.5C 91.5,252.833 91.5,250.167 91.5,247.5C 91.5,246.167 91.5,244.833 91.5,243.5C 92.8333,243.5 94.1667,243.5 95.5,243.5C 95.5,242.167 95.5,240.833 95.5,239.5C 94.1667,239.5 92.8333,239.5 91.5,239.5C 91.5,236.833 91.5,234.167 91.5,231.5 Z"/></g>
<g><path style="opacity:1" fill="#623116" d="M 119.5,231.5 C 123.5,231.5 127.5,231.5 131.5,231.5C 131.5,232.833 131.5,234.167 131.5,235.5C 127.5,235.5 123.5,235.5 119.5,235.5C 119.5,234.167 119.5,232.833 119.5,231.5 Z"/></g>
<g><path style="opacity:1" fill="#5c4e99" d="M 203.5,231.5 C 204.833,231.5 206.167,231.5 207.5,231.5C 207.5,232.833 207.5,234.167 207.5,235.5C 210.167,235.5 212.833,235.5 215.5,235.5C 215.5,236.833 215.5,238.167 215.5,239.5C 216.833,239.5 218.167,239.5 219.5,239.5C 219.5,240.833 219.5,242.167 219.5,243.5C 220.833,243.5 222.167,243.5 223.5,243.5C 223.5,244.833 223.5,246.167 223.5,247.5C 227.5,247.5 231.5,247.5 235.5,247.5C 235.5,248.833 235.5,250.167 235.5,251.5C 236.833,251.5 238.167,251.5 239.5,251.5C 239.5,252.833 239.5,254.167 239.5,255.5C 220.833,255.5 202.167,255.5 183.5,255.5C 183.5,254.167 183.5,252.833 183.5,251.5C 184.833,251.5 186.167,251.5 187.5,251.5C 187.5,250.167 187.5,248.833 187.5,247.5C 188.833,247.5 190.167,247.5 191.5,247.5C 191.5,246.167 191.5,244.833 191.5,243.5C 192.833,243.5 194.167,243.5 195.5,243.5C 196.833,243.5 198.167,243.5 199.5,243.5C 199.5,242.167 199.5,240.833 199.5,239.5C 199.5,238.167 199.5,236.833 199.5,235.5C 200.833,235.5 202.167,235.5 203.5,235.5C 203.5,234.167 203.5,232.833 203.5,231.5 Z"/></g>
<g><path style="opacity:1" fill="#0c0d0c" d="M 215.5,231.5 C 216.833,231.5 218.167,231.5 219.5,231.5C 219.5,232.833 219.5,234.167 219.5,235.5C 218.167,235.5 216.833,235.5 215.5,235.5C 215.5,234.167 215.5,232.833 215.5,231.5 Z"/></g>
<g><path style="opacity:1" fill="#ae9eea" d="M 215.5,235.5 C 216.833,235.5 218.167,235.5 219.5,235.5C 219.5,236.833 219.5,238.167 219.5,239.5C 218.167,239.5 216.833,239.5 215.5,239.5C 215.5,238.167 215.5,236.833 215.5,235.5 Z"/></g>
<g><path style="opacity:1" fill="#0c0d0c" d="M 219.5,235.5 C 220.833,235.5 222.167,235.5 223.5,235.5C 223.5,236.833 223.5,238.167 223.5,239.5C 222.167,239.5 220.833,239.5 219.5,239.5C 219.5,238.167 219.5,236.833 219.5,235.5 Z"/></g>
<g><path style="opacity:1" fill="#0c0d0c" d="M 91.5,239.5 C 92.8333,239.5 94.1667,239.5 95.5,239.5C 95.5,240.833 95.5,242.167 95.5,243.5C 94.1667,243.5 92.8333,243.5 91.5,243.5C 91.5,242.167 91.5,240.833 91.5,239.5 Z"/></g>
<g><path style="opacity:1" fill="#926346" d="M 199.5,239.5 C 199.5,240.833 199.5,242.167 199.5,243.5C 198.167,243.5 196.833,243.5 195.5,243.5C 195.5,242.167 195.5,240.833 195.5,239.5C 196.833,239.5 198.167,239.5 199.5,239.5 Z"/></g>
<g><path style="opacity:1" fill="#ae9eea" d="M 219.5,239.5 C 220.833,239.5 222.167,239.5 223.5,239.5C 223.5,240.833 223.5,242.167 223.5,243.5C 222.167,243.5 220.833,243.5 219.5,243.5C 219.5,242.167 219.5,240.833 219.5,239.5 Z"/></g>
<g><path style="opacity:1" fill="#0c0d0c" d="M 223.5,239.5 C 227.5,239.5 231.5,239.5 235.5,239.5C 235.5,240.833 235.5,242.167 235.5,243.5C 231.5,243.5 227.5,243.5 223.5,243.5C 223.5,242.167 223.5,240.833 223.5,239.5 Z"/></g>
<g><path style="opacity:1" fill="#0c0d0c" d="M 91.5,243.5 C 91.5,244.833 91.5,246.167 91.5,247.5C 90.1667,247.5 88.8333,247.5 87.5,247.5C 87.5,246.167 87.5,244.833 87.5,243.5C 88.8333,243.5 90.1667,243.5 91.5,243.5 Z"/></g>
<g><path style="opacity:1" fill="#ae9eea" d="M 223.5,243.5 C 227.5,243.5 231.5,243.5 235.5,243.5C 235.5,244.833 235.5,246.167 235.5,247.5C 231.5,247.5 227.5,247.5 223.5,247.5C 223.5,246.167 223.5,244.833 223.5,243.5 Z"/></g>
<g><path style="opacity:1" fill="#0c0d0c" d="M 235.5,243.5 C 238.167,243.5 240.833,243.5 243.5,243.5C 243.5,244.833 243.5,246.167 243.5,247.5C 240.833,247.5 238.167,247.5 235.5,247.5C 235.5,246.167 235.5,244.833 235.5,243.5 Z"/></g>
<g><path style="opacity:1" fill="#0c0d0c" d="M 87.5,247.5 C 87.5,248.833 87.5,250.167 87.5,251.5C 86.1667,251.5 84.8333,251.5 83.5,251.5C 83.5,250.167 83.5,248.833 83.5,247.5C 84.8333,247.5 86.1667,247.5 87.5,247.5 Z"/></g>
<g><path style="opacity:1" fill="#ae9eea" d="M 87.5,247.5 C 88.8333,247.5 90.1667,247.5 91.5,247.5C 91.5,250.167 91.5,252.833 91.5,255.5C 90.1667,255.5 88.8333,255.5 87.5,255.5C 87.5,254.167 87.5,252.833 87.5,251.5C 87.5,250.167 87.5,248.833 87.5,247.5 Z"/></g>
<g><path style="opacity:1" fill="#926346" d="M 187.5,247.5 C 187.5,248.833 187.5,250.167 187.5,251.5C 186.167,251.5 184.833,251.5 183.5,251.5C 183.5,250.167 183.5,248.833 183.5,247.5C 184.833,247.5 186.167,247.5 187.5,247.5 Z"/></g>
<g><path style="opacity:1" fill="#ae9eea" d="M 235.5,247.5 C 238.167,247.5 240.833,247.5 243.5,247.5C 243.5,248.833 243.5,250.167 243.5,251.5C 246.167,251.5 248.833,251.5 251.5,251.5C 251.5,252.833 251.5,254.167 251.5,255.5C 247.5,255.5 243.5,255.5 239.5,255.5C 239.5,254.167 239.5,252.833 239.5,251.5C 238.167,251.5 236.833,251.5 235.5,251.5C 235.5,250.167 235.5,248.833 235.5,247.5 Z"/></g>
<g><path style="opacity:1" fill="#0c0d0c" d="M 243.5,247.5 C 246.167,247.5 248.833,247.5 251.5,247.5C 251.5,248.833 251.5,250.167 251.5,251.5C 248.833,251.5 246.167,251.5 243.5,251.5C 243.5,250.167 243.5,248.833 243.5,247.5 Z"/></g>
<g><path style="opacity:1" fill="#0c0d0c" d="M 83.5,251.5 C 83.5,252.833 83.5,254.167 83.5,255.5C 80.8333,255.5 78.1667,255.5 75.5,255.5C 75.5,254.167 75.5,252.833 75.5,251.5C 78.1667,251.5 80.8333,251.5 83.5,251.5 Z"/></g>
<g><path style="opacity:1" fill="#5c4e99" d="M 83.5,251.5 C 84.8333,251.5 86.1667,251.5 87.5,251.5C 87.5,252.833 87.5,254.167 87.5,255.5C 86.1667,255.5 84.8333,255.5 83.5,255.5C 83.5,254.167 83.5,252.833 83.5,251.5 Z"/></g>
<g><path style="opacity:1" fill="#0c0d0c" d="M 251.5,251.5 C 252.833,251.5 254.167,251.5 255.5,251.5C 255.5,252.833 255.5,254.167 255.5,255.5C 254.167,255.5 252.833,255.5 251.5,255.5C 251.5,254.167 251.5,252.833 251.5,251.5 Z"/></g>
</svg>
